STARTFONT 2.1
COMMENT ======================================================================
COMMENT Font Status: Complete.
COMMENT              The font name is subject to change later.
COMMENT ***********
COMMENT Ethiomx16f-Uni.bdf is a hand drawn font with origins back to gez.asc
COMMENT ***********
COMMENT This Is The Unicode Ordered & Addressed Ethiopic Font Based On UTC-95-055A.
COMMENT Extension candidates are added in 4 rows at the end in a compressed 16
COMMENT column format. SERA character names are given for alphabetic elements;
COMMENT punctuations and numbers are named descriptively.
COMMENT Unicode encoding begins at hex 1200 / dec 4608
COMMENT ***********
COMMENT Another Fine Admas Product : fisseha@cig.mot.com
COMMENT Available at ftp://ftp.cs.indiana.edu/pub/fidel/fonts/ethiomx16-uni.bdf
COMMENT See also ftp://ftp.cs.indiana.edu/pub/fidel/info/unicode.ps
COMMENT ======================================================================
FONT -Admas-Ethiomx16f-Medium-R-Normal--16-150-100-100-M-160-Ethiopic-Unicode
SIZE 16 100 100
FONTBOUNDINGBOX 16 19 0 -2
STARTPROPERTIES 3
FONT_ASCENT 14
FONT_DESCENT 2
DEFAULT_CHAR 4960
ENDPROPERTIES
CHARS 412
STARTCHAR he
ENCODING 4608
SWIDTH 96 0
DWIDTH 16 0
BBX 16 16 0 -2
BITMAP
0000
0000
0000
01c0
30c0
30c0
30c0
30c0
30c0
30c0
3180
3180
1f00
0e00
0000
0000
ENDCHAR
STARTCHAR hu
ENCODING 4609
SWIDTH 96 0
DWIDTH 16 0
BBX 16 16 0 -2
BITMAP
0000
0000
0000
01c0
30c0
30c0
30c0
30fc
30cc
30c0
3180
3180
1f00
0e00
0000
0000
ENDCHAR
STARTCHAR hi
ENCODING 4610
SWIDTH 96 0
DWIDTH 16 0
BBX 16 16 0 -2
BITMAP
0000
0000
0660
0c60
0c60
0c60
0c60
07c0
03c0
00c0
0180
0300
0330
03f0
0000
0000
ENDCHAR
STARTCHAR ha
ENCODING 4611
SWIDTH 96 0
DWIDTH 16 0
BBX 16 16 0 -2
BITMAP
0000
0000
0660
0c60
0c60
0c60
0c60
07c0
03c0
00c0
0180
0300
0300
0300
0000
0000
ENDCHAR
STARTCHAR hE
ENCODING 4612
SWIDTH 96 0
DWIDTH 16 0
BBX 16 16 0 -2
BITMAP
0000
0000
0660
0c60
0c60
0c60
0c60
07c0
03c0
00c0
01c0
0340
0320
03e0
0000
0000
ENDCHAR
STARTCHAR h
ENCODING 4613
SWIDTH 96 0
DWIDTH 16 0
BBX 16 16 0 -2
BITMAP
0000
0000
0000
1870
1830
1c30
0e30
0630
0c30
0c30
0c30
0c60
07e0
03c0
0000
0000
ENDCHAR
STARTCHAR ho
ENCODING 4614
SWIDTH 96 0
DWIDTH 16 0
BBX 16 16 0 -2
BITMAP
0000
0000
0000
00f0
30c8
30d8
30e0
30c0
30c0
30c0
3180
3180
1f00
0e00
0000
0000
ENDCHAR
STARTCHAR le
ENCODING 4616
SWIDTH 96 0
DWIDTH 16 0
BBX 16 16 0 -2
BITMAP
0000
0000
0300
0300
0300
0780
07c0
0ce0
0c60
0c60
0c60
0c60
0c60
0c60
0000
0000
ENDCHAR
STARTCHAR lu
ENCODING 4617
SWIDTH 96 0
DWIDTH 16 0
BBX 16 16 0 -2
BITMAP
0000
0000
0c00
0c00
0c00
1e00
1f00
3380
3180
3180
31f8
3198
3180
3180
0000
0000
ENDCHAR
STARTCHAR li
ENCODING 4618
SWIDTH 96 0
DWIDTH 16 0
BBX 16 16 0 -2
BITMAP
0000
0000
0c00
0c00
0c00
1e00
1f00
3380
3180
3180
3180
3180
3198
31f8
0000
0000
ENDCHAR
STARTCHAR la
ENCODING 4619
SWIDTH 96 0
DWIDTH 16 0
BBX 16 16 0 -2
BITMAP
0000
0000
0300
0300
0300
0780
07c0
0ce0
0c60
0c60
0c60
0060
0060
0060
0000
0000
ENDCHAR
STARTCHAR lE
ENCODING 4620
SWIDTH 96 0
DWIDTH 16 0
BBX 16 16 0 -2
BITMAP
0000
0000
0c00
0c00
0c00
1e00
1f00
3380
3180
3180
3180
31f0
3198
31f0
0000
0000
ENDCHAR
STARTCHAR l
ENCODING 4621
SWIDTH 96 0
DWIDTH 16 0
BBX 16 16 0 -2
BITMAP
0000
0000
0300
0300
0300
0780
07c0
0ce0
0c60
1860
1860
1e60
1b60
1e60
0000
0000
ENDCHAR
STARTCHAR lo
ENCODING 4622
SWIDTH 96 0
DWIDTH 16 0
BBX 16 16 0 -2
BITMAP
0000
0000
0c00
0c00
0c00
1e00
1f00
3380
3180
31f8
31ac
31b8
3180
3180
0000
0000
ENDCHAR
STARTCHAR lWa
ENCODING 4623
SWIDTH 96 0
DWIDTH 16 0
BBX 16 16 0 -2
BITMAP
0000
0000
0300
0300
0300
0780
07c0
0ce0
0c60
0c60
0c60
0060
0060
0060
03fc
070e
ENDCHAR
STARTCHAR He
ENCODING 4624
SWIDTH 96 0
DWIDTH 16 0
BBX 16 16 0 -2
BITMAP
0000
0000
0180
0180
0180
0180
0180
07e0
0db0
0db0
1998
1998
1998
1998
0000
0000
ENDCHAR
STARTCHAR Hu
ENCODING 4625
SWIDTH 96 0
DWIDTH 16 0
BBX 16 16 0 -2
BITMAP
0000
0000
0600
0600
0600
0600
0600
1f80
36c0
36c0
667e
6666
6660
6660
0000
0000
ENDCHAR
STARTCHAR Hi
ENCODING 4626
SWIDTH 96 0
DWIDTH 16 0
BBX 16 16 0 -2
BITMAP
0000
0000
0600
0600
0600
0600
0600
1f80
36c0
36c0
6660
6660
6666
667e
0000
0000
ENDCHAR
STARTCHAR Ha
ENCODING 4627
SWIDTH 96 0
DWIDTH 16 0
BBX 16 16 0 -2
BITMAP
0000
0000
0180
0180
0180
0180
0180
07e0
0db0
0db0
1998
0018
0018
0018
0000
0000
ENDCHAR
STARTCHAR HE
ENCODING 4628
SWIDTH 96 0
DWIDTH 16 0
BBX 16 16 0 -2
BITMAP
0000
0000
0600
0600
0600
0600
0600
1f80
36c0
36c0
6640
6678
664c
6678
0000
0000
ENDCHAR
STARTCHAR H
ENCODING 4629
SWIDTH 96 0
DWIDTH 16 0
BBX 16 16 0 -2
BITMAP
0000
0000
0600
0600
0600
0780
0180
07e0
0db0
0db0
1998
1998
1998
1998
0000
0000
ENDCHAR
STARTCHAR Ho
ENCODING 4630
SWIDTH 96 0
DWIDTH 16 0
BBX 16 16 0 -2
BITMAP
0000
0000
0180
0180
0180
0180
0180
07e0
0db0
0db0
1998
1800
1800
1800
0000
0000
ENDCHAR
STARTCHAR HWa
ENCODING 4631
SWIDTH 96 0
DWIDTH 16 0
BBX 16 16 0 -2
BITMAP
0000
0300
0300
0300
0300
0300
0fc0
1b60
1b60
3330
0030
0030
0030
01fe
0387
0000
ENDCHAR
STARTCHAR me
ENCODING 4632
SWIDTH 96 0
DWIDTH 16 0
BBX 16 16 0 -2
BITMAP
0000
0000
0000
0000
0000
0ffc
1ffc
1124
3164
2344
264c
3c78
3c70
0000
0000
0000
ENDCHAR
STARTCHAR mu
ENCODING 4633
SWIDTH 96 0
DWIDTH 16 0
BBX 16 16 0 -2
BITMAP
0000
0000
0000
0000
0000
3ff0
7ff0
4490
c59e
8d12
9932
f1e0
f1c0
0000
0000
0000
ENDCHAR
STARTCHAR mi
ENCODING 4634
SWIDTH 96 0
DWIDTH 16 0
BBX 16 16 0 -2
BITMAP
0000
0000
1ff8
3ff8
6288
4288
4508
7df8
38f8
0010
0010
0020
0026
003e
0000
0000
ENDCHAR
STARTCHAR ma
ENCODING 4635
SWIDTH 96 0
DWIDTH 16 0
BBX 16 16 0 -2
BITMAP
0000
0000
0ffc
1ffc
3144
2144
2284
3efc
1c7c
0008
0008
0010
0010
0010
0000
0000
ENDCHAR
STARTCHAR mE
ENCODING 4636
SWIDTH 96 0
DWIDTH 16 0
BBX 16 16 0 -2
BITMAP
0000
0000
1ff8
3ff8
6288
4288
4508
7df8
38f8
0010
0010
003c
0026
003c
0000
0000
ENDCHAR
STARTCHAR m
ENCODING 4637
SWIDTH 96 0
DWIDTH 16 0
BBX 16 16 0 -2
BITMAP
0000
0000
1ff0
1ff8
3288
2288
2288
22f8
3e70
1e00
0200
0600
0c00
1800
0000
0000
ENDCHAR
STARTCHAR mo
ENCODING 4638
SWIDTH 96 0
DWIDTH 16 0
BBX 16 16 0 -2
BITMAP
0000
0000
1ff0
1ff8
3288
2288
2288
22f8
3e70
1e00
0200
0200
0200
0300
0000
0000
ENDCHAR
STARTCHAR mWa
ENCODING 4639
SWIDTH 96 0
DWIDTH 16 0
BBX 16 16 0 -2
BITMAP
0000
0000
1ff8
3ff8
6288
4288
4508
7df8
38f8
0010
0010
0030
0020
0020
01f8
030c
ENDCHAR
STARTCHAR `se/s2e
ENCODING 4640
SWIDTH 96 0
DWIDTH 16 0
BBX 16 16 0 -2
BITMAP
0000
0000
0000
0000
0998
1998
1998
1998
1998
19b0
19f0
0d80
0780
0000
0000
0000
ENDCHAR
STARTCHAR `su/s2u
ENCODING 4641
SWIDTH 96 0
DWIDTH 16 0
BBX 16 16 0 -2
BITMAP
0000
0000
0000
0000
26c0
66c0
66fc
66cc
66c0
66c0
67c0
3600
1e00
0000
0000
0000
ENDCHAR
STARTCHAR `si/s2i
ENCODING 4642
SWIDTH 96 0
DWIDTH 16 0
BBX 16 16 0 -2
BITMAP
0000
0000
6640
6660
6660
6660
6660
76e0
3fe0
0060
0060
0060
0066
007e
0000
0000
ENDCHAR
STARTCHAR `sa/s2a
ENCODING 4643
SWIDTH 96 0
DWIDTH 16 0
BBX 16 16 0 -2
BITMAP
0000
0000
1990
1998
1998
1998
1998
1db8
0ff8
0018
0018
0018
0018
0018
0000
0000
ENDCHAR
STARTCHAR `sE/s2E
ENCODING 4644
SWIDTH 96 0
DWIDTH 16 0
BBX 16 16 0 -2
BITMAP
0000
0000
3320
3330
3330
3330
3330
3b70
1ff0
0030
0030
0038
0064
0078
0000
0000
ENDCHAR
STARTCHAR `s/s2
ENCODING 4645
SWIDTH 96 0
DWIDTH 16 0
BBX 16 16 0 -2
BITMAP
0000
0000
1990
1998
1998
1998
1998
1db8
1ff0
1c00
1800
1800
1800
1800
0000
0000
ENDCHAR
STARTCHAR `so/s2o
ENCODING 4646
SWIDTH 96 0
DWIDTH 16 0
BBX 16 16 0 -2
BITMAP
0000
0000
1998
1998
1998
1998
1998
1db8
0ff0
0380
0300
0700
0e00
0c00
0000
0000
ENDCHAR
STARTCHAR `sWa/s2Wa
ENCODING 4647
SWIDTH 96 0
DWIDTH 16 0
BBX 16 16 0 -2
BITMAP
0000
6640
6660
6660
6660
6660
76e0
3fe0
0060
0060
0060
0060
0060
03fc
070e
0000
ENDCHAR
STARTCHAR re
ENCODING 4648
SWIDTH 96 0
DWIDTH 16 0
BBX 16 16 0 -2
BITMAP
0000
0000
0180
0180
0180
0300
0700
0e00
1c00
1800
1800
1c60
0fe0
07e0
0000
0000
ENDCHAR
STARTCHAR ru
ENCODING 4649
SWIDTH 96 0
DWIDTH 16 0
BBX 16 16 0 -2
BITMAP
0000
0000
0300
0300
0700
0e00
1c00
1800
3000
3800
1ff0
0ff0
0180
0180
0000
0000
ENDCHAR
STARTCHAR ri
ENCODING 4650
SWIDTH 96 0
DWIDTH 16 0
BBX 16 16 0 -2
BITMAP
0000
0000
0180
0180
0180
0300
0700
0e00
1c00
1860
1870
1c30
0fe0
07c0
0000
0000
ENDCHAR
STARTCHAR ra
ENCODING 4651
SWIDTH 96 0
DWIDTH 16 0
BBX 16 16 0 -2
BITMAP
0000
0000
0300
0300
0300
0600
0e00
1c00
3800
3078
30f8
3998
1f80
0f00
0000
0000
ENDCHAR
STARTCHAR rE
ENCODING 4652
SWIDTH 96 0
DWIDTH 16 0
BBX 16 16 0 -2
BITMAP
0000
0000
0180
0180
0180
0300
0700
0e00
1c00
1800
1800
1cf0
0f98
07f0
0000
0000
ENDCHAR
STARTCHAR r
ENCODING 4653
SWIDTH 96 0
DWIDTH 16 0
BBX 16 16 0 -2
BITMAP
0000
0000
0000
07e0
0fe0
1860
1800
1800
1800
1800
1800
1860
1fe0
0fc0
0000
0000
ENDCHAR
STARTCHAR ro
ENCODING 4654
SWIDTH 96 0
DWIDTH 16 0
BBX 16 16 0 -2
BITMAP
0000
0000
0000
07f0
0f98
18f0
1800
1800
1800
1800
1800
1860
1fe0
0fc0
0000
0000
ENDCHAR
STARTCHAR rWa
ENCODING 4655
SWIDTH 96 0
DWIDTH 16 0
BBX 16 16 0 -2
BITMAP
0000
0000
3030
1ce0
0300
0300
0600
0e00
1c00
3800
3078
30f8
3998
1f80
0f00
0000
ENDCHAR
STARTCHAR se
ENCODING 4656
SWIDTH 96 0
DWIDTH 16 0
BBX 16 16 0 -2
BITMAP
0000
0000
0100
0100
0380
07c0
0c60
0c60
0c60
0c60
0c60
0c60
0c60
0c60
0000
0000
ENDCHAR
STARTCHAR su
ENCODING 4657
SWIDTH 96 0
DWIDTH 16 0
BBX 16 16 0 -2
BITMAP
0000
0000
0400
0400
0e00
1f00
3180
3180
3180
31f8
3198
3180
3180
3180
0000
0000
ENDCHAR
STARTCHAR si
ENCODING 4658
SWIDTH 96 0
DWIDTH 16 0
BBX 16 16 0 -2
BITMAP
0000
0000
0400
0400
0e00
1f00
3180
3180
3180
3180
3180
3180
3198
31f8
0000
0000
ENDCHAR
STARTCHAR sa
ENCODING 4659
SWIDTH 96 0
DWIDTH 16 0
BBX 16 16 0 -2
BITMAP
0000
0000
0100
0100
0380
07c0
0c60
0c60
0c60
0c60
0c60
0060
0060
0060
0000
0000
ENDCHAR
STARTCHAR sE
ENCODING 4660
SWIDTH 96 0
DWIDTH 16 0
BBX 16 16 0 -2
BITMAP
0000
0000
0200
0200
0700
0f80
18c0
18c0
18c0
18c0
18e0
18d0
18c8
18f8
0000
0000
ENDCHAR
STARTCHAR s
ENCODING 4661
SWIDTH 96 0
DWIDTH 16 0
BBX 16 16 0 -2
BITMAP
0000
0000
0000
0300
0180
01c0
03e0
0630
0630
0630
0630
0630
0630
0630
0000
0000
ENDCHAR
STARTCHAR so
ENCODING 4662
SWIDTH 96 0
DWIDTH 16 0
BBX 16 16 0 -2
BITMAP
0000
0000
0100
0100
0380
07c0
0c60
0c60
0c60
0c60
0c60
0c00
0c00
0c00
0000
0000
ENDCHAR
STARTCHAR sWa
ENCODING 4663
SWIDTH 96 0
DWIDTH 16 0
BBX 16 16 0 -2
BITMAP
0000
0000
0100
0100
0380
07c0
0c60
0c60
0c60
0c60
0c60
0060
0060
0060
01f8
030c
ENDCHAR
STARTCHAR xe
ENCODING 4664
SWIDTH 96 0
DWIDTH 16 0
BBX 16 16 0 -2
BITMAP
0000
0000
3060
1fc0
0200
0700
0f80
18c0
18c0
18c0
18c0
18c0
18c0
18c0
0000
0000
ENDCHAR
STARTCHAR xu
ENCODING 4665
SWIDTH 96 0
DWIDTH 16 0
BBX 16 16 0 -2
BITMAP
0000
0000
3060
1fc0
0200
0700
0f80
18c0
18c0
18fc
18cc
18cc
18c0
18c0
0000
0000
ENDCHAR
STARTCHAR xi
ENCODING 4666
SWIDTH 96 0
DWIDTH 16 0
BBX 16 16 0 -2
BITMAP
0000
0000
3060
1fc0
0200
0700
0f80
18c0
18c0
18c0
18c0
18c0
18cc
18fc
0000
0000
ENDCHAR
STARTCHAR xa
ENCODING 4667
SWIDTH 96 0
DWIDTH 16 0
BBX 16 16 0 -2
BITMAP
0000
0000
1830
0fe0
0100
0380
07c0
0c60
0c60
0c60
0c60
0060
0060
0060
0000
0000
ENDCHAR
STARTCHAR xE
ENCODING 4668
SWIDTH 96 0
DWIDTH 16 0
BBX 16 16 0 -2
BITMAP
0000
0000
3060
1fc0
0200
0700
0f80
18c0
18c0
18c0
18c0
18f8
18cc
18f8
0000
0000
ENDCHAR
STARTCHAR x
ENCODING 4669
SWIDTH 96 0
DWIDTH 16 0
BBX 16 16 0 -2
BITMAP
0000
0000
1860
0fc0
0180
01c0
03e0
0330
0630
0630
0630
0630
0630
0630
0000
0000
ENDCHAR
STARTCHAR xo
ENCODING 4670
SWIDTH 96 0
DWIDTH 16 0
BBX 16 16 0 -2
BITMAP
0000
0000
1830
0fe0
0100
0380
07c0
0c60
0c60
0c60
0c60
0c00
0c00
0c00
0000
0000
ENDCHAR
STARTCHAR xWa
ENCODING 4671
SWIDTH 96 0
DWIDTH 16 0
BBX 16 16 0 -2
BITMAP
0000
0000
3060
1fc0
0200
0700
0f80
18c0
18c0
18c0
18c0
18c0
00c0
00c0
03f0
0618
ENDCHAR
STARTCHAR qe
ENCODING 4672
SWIDTH 96 0
DWIDTH 16 0
BBX 16 16 0 -2
BITMAP
0000
0000
0180
0180
0180
03f0
0d98
1998
19b0
0fc0
0180
0180
0180
0180
0000
0000
ENDCHAR
STARTCHAR qu
ENCODING 4673
SWIDTH 96 0
DWIDTH 16 0
BBX 16 16 0 -2
BITMAP
0000
0000
0300
0300
0300
07e0
1b30
3330
3360
1f80
0300
03f0
0330
0300
0000
0000
ENDCHAR
STARTCHAR qi
ENCODING 4674
SWIDTH 96 0
DWIDTH 16 0
BBX 16 16 0 -2
BITMAP
0000
0000
0300
0300
0300
07e0
1b30
3330
3360
1f80
0300
0300
0330
03f0
0000
0000
ENDCHAR
STARTCHAR qa
ENCODING 4675
SWIDTH 96 0
DWIDTH 16 0
BBX 16 16 0 -2
BITMAP
0000
0000
0180
0180
0180
03f0
0d98
1998
19b0
0fc0
0180
0300
0600
0c00
0000
0000
ENDCHAR
STARTCHAR qE
ENCODING 4676
SWIDTH 96 0
DWIDTH 16 0
BBX 16 16 0 -2
BITMAP
0000
0000
0300
0300
0300
07e0
1b30
3330
3360
1f80
0300
03e0
0330
03e0
0000
0000
ENDCHAR
STARTCHAR q
ENCODING 4677
SWIDTH 96 0
DWIDTH 16 0
BBX 16 16 0 -2
BITMAP
0000
0000
0600
0600
0780
0180
03f0
0d98
1998
19b0
0fc0
0180
0180
0180
0000
0000
ENDCHAR
STARTCHAR qo
ENCODING 4678
SWIDTH 96 0
DWIDTH 16 0
BBX 16 16 0 -2
BITMAP
0000
0000
01c0
0260
02c0
0300
07e0
1b30
3330
3360
1f80
0300
0300
0300
0000
0000
ENDCHAR
STARTCHAR qWe
ENCODING 4680
SWIDTH 96 0
DWIDTH 16 0
BBX 16 16 0 -2
BITMAP
0000
0000
0180
0180
0180
03f0
0d98
1998
19b0
0fc0
01f8
01ac
01b8
0180
0000
0000
ENDCHAR
STARTCHAR qWi
ENCODING 4682
SWIDTH 96 0
DWIDTH 16 0
BBX 16 16 0 -2
BITMAP
0000
0000
0600
0600
0600
0fc0
366c
666c
66fc
3f07
0603
0600
0600
0600
0000
0000
ENDCHAR
STARTCHAR qWa
ENCODING 4683
SWIDTH 96 0
DWIDTH 16 0
BBX 16 16 0 -2
BITMAP
0000
0000
0180
0180
0180
03f0
0d98
1998
19b0
0fc0
0180
0180
0180
0180
07e0
0c30
ENDCHAR
STARTCHAR qWE
ENCODING 4684
SWIDTH 96 0
DWIDTH 16 0
BBX 16 16 0 -2
BITMAP
0000
0000
0180
0180
0180
03f0
0d98
1998
19b0
0fc0
0180
0180
01f0
0198
07f0
0c00
ENDCHAR
STARTCHAR qWu/qW
ENCODING 4685
SWIDTH 96 0
DWIDTH 16 0
BBX 16 16 0 -2
BITMAP
0000
0000
0600
0618
0618
0ffe
3666
6660
66c0
3f00
0600
0600
0600
0600
0000
0000
ENDCHAR
STARTCHAR Qe
ENCODING 4688
SWIDTH 96 0
DWIDTH 16 0
BBX 16 16 0 -2
BITMAP
0000
0000
0c30
07e0
0180
0180
03f0
0d98
1998
19b0
0fc0
0180
0180
0180
0000
0000
ENDCHAR
STARTCHAR Qu
ENCODING 4689
SWIDTH 96 0
DWIDTH 16 0
BBX 16 16 0 -2
BITMAP
0000
0000
1860
0fc0
0300
0300
07e0
1b30
3330
3360
1f80
0300
03f0
0330
0000
0000
ENDCHAR
STARTCHAR Qi
ENCODING 4690
SWIDTH 96 0
DWIDTH 16 0
BBX 16 16 0 -2
BITMAP
0000
0000
1860
0fc0
0300
0300
07e0
1b30
3330
3360
1f80
0300
0330
03f0
0000
0000
ENDCHAR
STARTCHAR Qa
ENCODING 4691
SWIDTH 96 0
DWIDTH 16 0
BBX 16 16 0 -2
BITMAP
0000
0000
0c30
07e0
0180
0180
03f0
0d98
1998
19b0
0fc0
0180
0300
0600
0000
0000
ENDCHAR
STARTCHAR QE
ENCODING 4692
SWIDTH 96 0
DWIDTH 16 0
BBX 16 16 0 -2
BITMAP
0000
0000
1860
0fc0
0300
07e0
1b30
3330
3360
1f80
0300
03e0
0330
03e0
0000
0000
ENDCHAR
STARTCHAR Q
ENCODING 4693
SWIDTH 96 0
DWIDTH 16 0
BBX 16 16 0 -2
BITMAP
0000
0000
30c0
1f80
0600
0780
0180
03f0
0d98
1998
19b0
0fc0
0180
0180
0000
0000
ENDCHAR
STARTCHAR Qo
ENCODING 4694
SWIDTH 96 0
DWIDTH 16 0
BBX 16 16 0 -2
BITMAP
0000
0000
0c18
07f0
0120
0160
0180
03f0
0d98
1998
19b0
0fc0
0180
0180
0000
0000
ENDCHAR
STARTCHAR QWe
ENCODING 4696
SWIDTH 96 0
DWIDTH 16 0
BBX 16 16 0 -2
BITMAP
0000
0000
1860
0fc0
0300
07e0
1b30
3330
3360
1f80
03f0
0358
0370
0300
0000
0000
ENDCHAR
STARTCHAR QWi
ENCODING 4698
SWIDTH 96 0
DWIDTH 16 0
BBX 16 16 0 -2
BITMAP
0000
0000
30c0
1f80
0600
0600
0fc0
366c
666c
66fc
3f07
0603
0600
0600
0000
0000
ENDCHAR
STARTCHAR QWa
ENCODING 4699
SWIDTH 96 0
DWIDTH 16 0
BBX 16 16 0 -2
BITMAP
0000
0000
0c30
07e0
0180
0180
03f0
0d98
1998
19b0
0fc0
0180
0180
0180
07e0
0c30
ENDCHAR
STARTCHAR QWE
ENCODING 4700
SWIDTH 96 0
DWIDTH 16 0
BBX 16 16 0 -2
BITMAP
0000
0000
0c30
07e0
0180
0180
03f0
0d98
1998
19b0
0fc0
0180
01f0
0198
07f0
0c00
ENDCHAR
STARTCHAR QWu/QW
ENCODING 4701
SWIDTH 96 0
DWIDTH 16 0
BBX 16 16 0 -2
BITMAP
0000
0000
30c0
1f80
0618
0618
0ffe
3666
6660
66c0
3f00
0600
0600
0600
0000
0000
ENDCHAR
STARTCHAR be
ENCODING 4704
SWIDTH 96 0
DWIDTH 16 0
BBX 16 16 0 -2
BITMAP
0000
0000
0000
0380
07c0
0c60
0c60
0c60
0c60
0c60
0c60
0c60
0c60
0c60
0000
0000
ENDCHAR
STARTCHAR bu
ENCODING 4705
SWIDTH 96 0
DWIDTH 16 0
BBX 16 16 0 -2
BITMAP
0000
0000
0000
0e00
1f00
3180
3180
3180
31f8
3198
3198
3180
3180
3180
0000
0000
ENDCHAR
STARTCHAR bi
ENCODING 4706
SWIDTH 96 0
DWIDTH 16 0
BBX 16 16 0 -2
BITMAP
0000
0000
0000
0e00
1f00
3180
3180
3180
3180
3180
3180
3180
3198
31f8
0000
0000
ENDCHAR
STARTCHAR ba
ENCODING 4707
SWIDTH 96 0
DWIDTH 16 0
BBX 16 16 0 -2
BITMAP
0000
0000
0000
0380
07c0
0c60
0c60
0c60
0c60
0c60
0060
0060
0060
0060
0000
0000
ENDCHAR
STARTCHAR bE
ENCODING 4708
SWIDTH 96 0
DWIDTH 16 0
BBX 16 16 0 -2
BITMAP
0000
0000
0000
0700
0f80
18c0
18c0
18c0
18c0
18c0
18c0
18f8
18cc
18f8
0000
0000
ENDCHAR
STARTCHAR b
ENCODING 4709
SWIDTH 96 0
DWIDTH 16 0
BBX 16 16 0 -2
BITMAP
0000
0000
0000
00e0
01f0
0318
0318
0318
3f18
3318
3318
0318
0318
0318
0000
0000
ENDCHAR
STARTCHAR bo
ENCODING 4710
SWIDTH 96 0
DWIDTH 16 0
BBX 16 16 0 -2
BITMAP
0000
0000
0000
0380
07c0
0c60
0c60
0c60
0c60
0c60
0c00
0c00
0c00
0c00
0000
0000
ENDCHAR
STARTCHAR bWa
ENCODING 4711
SWIDTH 96 0
DWIDTH 16 0
BBX 16 16 0 -2
BITMAP
0000
0000
0000
0380
07c0
0c60
0c60
0c60
0c60
0c60
0060
0060
0060
0060
01f8
030c
ENDCHAR
STARTCHAR ve
ENCODING 4712
SWIDTH 96 0
DWIDTH 16 0
BBX 16 16 0 -2
BITMAP
0000
0000
3060
1fc0
0000
0700
0f80
18c0
18c0
18c0
18c0
18c0
18c0
18c0
0000
0000
ENDCHAR
STARTCHAR vu
ENCODING 4713
SWIDTH 96 0
DWIDTH 16 0
BBX 16 16 0 -2
BITMAP
0000
0000
3060
1fc0
0000
0700
0f80
18c0
18c0
18fc
18cc
18cc
18c0
18c0
0000
0000
ENDCHAR
STARTCHAR vi
ENCODING 4714
SWIDTH 96 0
DWIDTH 16 0
BBX 16 16 0 -2
BITMAP
0000
0000
3060
1fc0
0000
0700
0f80
18c0
18c0
18c0
18c0
18c0
18cc
18fc
0000
0000
ENDCHAR
STARTCHAR va
ENCODING 4715
SWIDTH 96 0
DWIDTH 16 0
BBX 16 16 0 -2
BITMAP
0000
0000
3060
1fc0
0000
0700
0f80
18c0
18c0
18c0
18c0
18c0
00c0
00c0
0000
0000
ENDCHAR
STARTCHAR vE
ENCODING 4716
SWIDTH 96 0
DWIDTH 16 0
BBX 16 16 0 -2
BITMAP
0000
0000
60c0
3f80
0000
0e00
1f00
3180
3180
3180
3180
31f0
3198
31f0
0000
0000
ENDCHAR
STARTCHAR v
ENCODING 4717
SWIDTH 96 0
DWIDTH 16 0
BBX 16 16 0 -2
BITMAP
0000
0000
0c18
07f0
0000
01c0
03e0
0630
0630
7e30
6630
6630
0630
0630
0000
0000
ENDCHAR
STARTCHAR vo
ENCODING 4718
SWIDTH 96 0
DWIDTH 16 0
BBX 16 16 0 -2
BITMAP
0000
0000
3060
1fc0
0000
0700
0f80
18c0
18c0
18c0
18c0
18c0
1800
1800
0000
0000
ENDCHAR
STARTCHAR vWa
ENCODING 4719
SWIDTH 96 0
DWIDTH 16 0
BBX 16 16 0 -2
BITMAP
0000
0000
3060
1fc0
0000
0700
0f80
18c0
18c0
18c0
18c0
18c0
00c0
00c0
03f0
0618
ENDCHAR
STARTCHAR te
ENCODING 4720
SWIDTH 96 0
DWIDTH 16 0
BBX 16 16 0 -2
BITMAP
0000
0000
0700
0300
0300
0300
3ff0
7ff8
6318
0300
0300
0300
0300
0300
0000
0000
ENDCHAR
STARTCHAR tu
ENCODING 4721
SWIDTH 96 0
DWIDTH 16 0
BBX 16 16 0 -2
BITMAP
0000
0000
0700
0300
0300
0300
3ff0
7ff8
6318
0300
03f0
0330
0300
0300
0000
0000
ENDCHAR
STARTCHAR ti
ENCODING 4722
SWIDTH 96 0
DWIDTH 16 0
BBX 16 16 0 -2
BITMAP
0000
0000
0700
0300
0300
0300
3ff0
7ff8
6318
0300
0300
0300
0330
03f0
0000
0000
ENDCHAR
STARTCHAR ta
ENCODING 4723
SWIDTH 96 0
DWIDTH 16 0
BBX 16 16 0 -2
BITMAP
0000
0000
0700
0300
0300
0300
3ff0
7ff8
6318
0300
0300
0700
0e00
1c00
0000
0000
ENDCHAR
STARTCHAR tE
ENCODING 4724
SWIDTH 96 0
DWIDTH 16 0
BBX 16 16 0 -2
BITMAP
0000
0000
0700
0300
0300
0300
3ff0
7ff8
6318
0300
0300
03e0
0330
03e0
0000
0000
ENDCHAR
STARTCHAR t
ENCODING 4725
SWIDTH 96 0
DWIDTH 16 0
BBX 16 16 0 -2
BITMAP
0000
0000
0600
0700
0380
0180
0180
1ff8
3ffc
318c
0180
0180
0180
0180
0000
0000
ENDCHAR
STARTCHAR to
ENCODING 4726
SWIDTH 96 0
DWIDTH 16 0
BBX 16 16 0 -2
BITMAP
0000
0000
03e0
0320
0160
0180
1ff8
3ffc
318c
0180
0180
0180
0180
0180
0000
0000
ENDCHAR
STARTCHAR tWa
ENCODING 4727
SWIDTH 96 0
DWIDTH 16 0
BBX 16 16 0 -2
BITMAP
0000
0000
0380
0180
0180
0180
1ff8
3ffc
318c
0180
0180
0180
0180
0180
07e0
0c30
ENDCHAR
STARTCHAR ce
ENCODING 4728
SWIDTH 96 0
DWIDTH 16 0
BBX 16 16 0 -2
BITMAP
0000
0000
1818
1ff8
3ffc
318c
0180
1ff8
3ffc
318c
0180
0180
0180
0180
0000
0000
ENDCHAR
STARTCHAR cu
ENCODING 4729
SWIDTH 96 0
DWIDTH 16 0
BBX 16 16 0 -2
BITMAP
0000
0000
1818
1ff8
3ffc
318c
0180
1ff8
3ffc
318c
0180
01f8
0198
0180
0000
0000
ENDCHAR
STARTCHAR ci
ENCODING 4730
SWIDTH 96 0
DWIDTH 16 0
BBX 16 16 0 -2
BITMAP
0000
0000
1818
1ff8
3ffc
318c
0180
1ff8
3ffc
318c
0180
0180
0198
01f8
0000
0000
ENDCHAR
STARTCHAR ca
ENCODING 4731
SWIDTH 96 0
DWIDTH 16 0
BBX 16 16 0 -2
BITMAP
0000
0000
3030
3ff0
7ff8
6318
0300
3ff0
7ff8
6318
0300
0700
0e00
1c00
0000
0000
ENDCHAR
STARTCHAR cE
ENCODING 4732
SWIDTH 96 0
DWIDTH 16 0
BBX 16 16 0 -2
BITMAP
0000
0000
3030
3ff0
7ff8
6318
0300
3ff0
7ff8
6318
0300
03e0
0330
03e0
0000
0000
ENDCHAR
STARTCHAR c
ENCODING 4733
SWIDTH 96 0
DWIDTH 16 0
BBX 16 16 0 -2
BITMAP
0000
0000
30c0
3fc0
7fe0
6660
0700
0180
1ff8
3ffc
318c
0180
0180
0180
0000
0000
ENDCHAR
STARTCHAR co
ENCODING 4734
SWIDTH 96 0
DWIDTH 16 0
BBX 16 16 0 -2
BITMAP
0000
0000
0c30
1ff8
1a58
0240
0180
1ff8
3ffc
318c
0180
0180
0180
0180
0000
0000
ENDCHAR
STARTCHAR cWa
ENCODING 4735
SWIDTH 96 0
DWIDTH 16 0
BBX 16 16 0 -2
BITMAP
0000
0000
1818
1ff8
3ffc
318c
0180
1ff8
3ffc
318c
0180
0180
0180
0180
07e0
0c30
ENDCHAR
STARTCHAR `he/h2e
ENCODING 4736
SWIDTH 96 0
DWIDTH 16 0
BBX 16 16 0 -2
BITMAP
0000
0000
0180
0180
0180
1f80
19e0
0060
0060
0060
0060
0060
0060
0060
0000
0000
ENDCHAR
STARTCHAR `hu/h2u
ENCODING 4737
SWIDTH 96 0
DWIDTH 16 0
BBX 16 16 0 -2
BITMAP
0000
0000
0300
0300
0300
3f00
33c0
00c0
00c0
00fc
00cc
00c0
00c0
00c0
0000
0000
ENDCHAR
STARTCHAR `hi/h2i
ENCODING 4738
SWIDTH 96 0
DWIDTH 16 0
BBX 16 16 0 -2
BITMAP
0000
0000
0300
0300
0300
3f00
33c0
00c0
00c0
00c0
00c0
00c0
00cc
00fc
0000
0000
ENDCHAR
STARTCHAR `ha/h2a
ENCODING 4739
SWIDTH 96 0
DWIDTH 16 0
BBX 16 16 0 -2
BITMAP
0000
0000
00c0
00c0
00c0
0fc0
0cf0
0030
0030
0030
00e0
0180
0300
0300
0000
0000
ENDCHAR
STARTCHAR `hE/h2E
ENCODING 4740
SWIDTH 96 0
DWIDTH 16 0
BBX 16 16 0 -2
BITMAP
0000
0000
0300
0300
0300
3f00
33c0
00c0
00c0
00c0
00c0
00f8
00cc
00f8
0000
0000
ENDCHAR
STARTCHAR `h/h2
ENCODING 4741
SWIDTH 96 0
DWIDTH 16 0
BBX 16 16 0 -2
BITMAP
0000
0000
00c0
00c0
00c0
03c0
06f0
0c30
0c30
0030
0030
0030
0030
0030
0000
0000
ENDCHAR
STARTCHAR `ho/h2o
ENCODING 4742
SWIDTH 96 0
DWIDTH 16 0
BBX 16 16 0 -2
BITMAP
0000
0000
01f8
03e4
0638
3e00
3600
0600
07e0
03e0
0060
0060
0060
0060
0000
0000
ENDCHAR
STARTCHAR hWe
ENCODING 4744
SWIDTH 96 0
DWIDTH 16 0
BBX 16 16 0 -2
BITMAP
0000
0000
0600
0600
0600
7e00
6780
0180
01f8
01ac
01b8
0180
0180
0180
0000
0000
ENDCHAR
STARTCHAR hWi
ENCODING 4746
SWIDTH 96 0
DWIDTH 16 0
BBX 16 16 0 -2
BITMAP
0000
0000
0600
0600
0600
7e00
6780
0198
0198
01f8
018e
0186
0180
0180
0000
0000
ENDCHAR
STARTCHAR hWa
ENCODING 4747
SWIDTH 96 0
DWIDTH 16 0
BBX 16 16 0 -2
BITMAP
0000
0000
0180
0180
0180
1f80
19e0
0060
0060
0060
0060
0060
0060
0060
01f8
030c
ENDCHAR
STARTCHAR hWE
ENCODING 4748
SWIDTH 96 0
DWIDTH 16 0
BBX 16 16 0 -2
BITMAP
0000
0000
0300
0300
0300
3f00
33c0
00c0
00c0
00c0
00c0
00c0
00f8
00cc
03f8
0600
ENDCHAR
STARTCHAR hWu/hW
ENCODING 4749
SWIDTH 96 0
DWIDTH 16 0
BBX 16 16 0 -2
BITMAP
0000
0000
0600
0600
0600
7e30
67b0
01fc
018c
0180
0180
0180
0180
0180
0000
0000
ENDCHAR
STARTCHAR ne
ENCODING 4752
SWIDTH 96 0
DWIDTH 16 0
BBX 16 16 0 -2
BITMAP
0000
0000
0600
0600
0600
0780
01c0
0180
0180
0180
0300
0300
0300
0300
0000
0000
ENDCHAR
STARTCHAR nu
ENCODING 4753
SWIDTH 96 0
DWIDTH 16 0
BBX 16 16 0 -2
BITMAP
0000
0000
0600
0600
0600
0780
01c0
0180
0180
01f0
0330
0300
0300
0300
0000
0000
ENDCHAR
STARTCHAR ni
ENCODING 4754
SWIDTH 96 0
DWIDTH 16 0
BBX 16 16 0 -2
BITMAP
0000
0000
0c00
0c00
0c00
0f00
0380
0300
0300
0300
0600
0600
0660
07e0
0000
0000
ENDCHAR
STARTCHAR na
ENCODING 4755
SWIDTH 96 0
DWIDTH 16 0
BBX 16 16 0 -2
BITMAP
0000
0000
07c0
0fe0
1860
3000
3800
1f00
0380
0180
0100
0300
0300
0300
0000
0000
ENDCHAR
STARTCHAR nE
ENCODING 4756
SWIDTH 96 0
DWIDTH 16 0
BBX 16 16 0 -2
BITMAP
0000
0000
0600
0600
0600
0780
01c0
0180
0180
0180
03c0
0320
0360
03c0
0000
0000
ENDCHAR
STARTCHAR n
ENCODING 4757
SWIDTH 96 0
DWIDTH 16 0
BBX 16 16 0 -2
BITMAP
0000
0000
3fc0
3f80
3180
0300
07c0
00c0
0180
0300
0300
0600
0600
0c00
0000
0000
ENDCHAR
STARTCHAR no
ENCODING 4758
SWIDTH 96 0
DWIDTH 16 0
BBX 16 16 0 -2
BITMAP
0000
0000
07f0
0fc8
1858
3030
3800
1f00
0380
0180
0100
0300
0300
0300
0000
0000
ENDCHAR
STARTCHAR nWa
ENCODING 4759
SWIDTH 96 0
DWIDTH 16 0
BBX 16 16 0 -2
BITMAP
0000
0000
0000
07c0
0fe0
1860
3000
3800
1f00
0380
0180
0100
0300
0300
0fc0
1860
ENDCHAR
STARTCHAR Ne
ENCODING 4760
SWIDTH 96 0
DWIDTH 16 0
BBX 16 16 0 -2
BITMAP
0000
0000
0c30
1ff8
1188
0180
01e0
0070
0060
0060
00c0
00c0
00c0
00c0
0000
0000
ENDCHAR
STARTCHAR Nu
ENCODING 4761
SWIDTH 96 0
DWIDTH 16 0
BBX 16 16 0 -2
BITMAP
0000
0000
1860
3ff0
2310
0300
03c0
00e0
00c0
00f8
0198
0180
0180
0180
0000
0000
ENDCHAR
STARTCHAR Ni
ENCODING 4762
SWIDTH 96 0
DWIDTH 16 0
BBX 16 16 0 -2
BITMAP
0000
0000
1860
3ff0
2310
0300
03c0
00e0
00c0
00c0
0180
0180
0198
01f8
0000
0000
ENDCHAR
STARTCHAR Na
ENCODING 4763
SWIDTH 96 0
DWIDTH 16 0
BBX 16 16 0 -2
BITMAP
0000
0c30
1ff8
1188
07c0
0fe0
1860
3000
3800
1f00
0380
0180
0300
0300
0000
0000
ENDCHAR
STARTCHAR NE
ENCODING 4764
SWIDTH 96 0
DWIDTH 16 0
BBX 16 16 0 -2
BITMAP
0000
0000
1860
3ff0
2310
0300
03c0
00e0
00c0
00c0
01e0
0190
01b0
01e0
0000
0000
ENDCHAR
STARTCHAR N
ENCODING 4765
SWIDTH 96 0
DWIDTH 16 0
BBX 16 16 0 -2
BITMAP
0000
30c0
7fe0
4620
1fc0
3f80
3180
0300
07c0
00c0
0180
0300
0300
0300
0000
0000
ENDCHAR
STARTCHAR No
ENCODING 4766
SWIDTH 96 0
DWIDTH 16 0
BBX 16 16 0 -2
BITMAP
0000
0c60
1ff0
1110
07f0
0fc8
1858
3030
3800
1f00
0380
0180
0300
0300
0000
0000
ENDCHAR
STARTCHAR NWa
ENCODING 4767
SWIDTH 96 0
DWIDTH 16 0
BBX 16 16 0 -2
BITMAP
0000
0c30
1ff8
1188
07c0
0fe0
1860
3000
3800
1f00
0380
0180
0300
0300
0fc0
1860
ENDCHAR
STARTCHAR e/a
ENCODING 4768
SWIDTH 96 0
DWIDTH 16 0
BBX 16 16 0 -2
BITMAP
0000
0000
0600
0600
0600
0780
0180
0380
03c0
06e0
0e60
0c60
0c60
0c60
0000
0000
ENDCHAR
STARTCHAR u/U
ENCODING 4769
SWIDTH 96 0
DWIDTH 16 0
BBX 16 16 0 -2
BITMAP
0000
0000
1800
1800
1800
1e00
0600
0e00
0f00
1b80
39f8
3198
3180
3180
0000
0000
ENDCHAR
STARTCHAR i
ENCODING 4770
SWIDTH 96 0
DWIDTH 16 0
BBX 16 16 0 -2
BITMAP
0000
0000
1800
1800
1800
1e00
0600
0e00
0f00
1b80
3980
3180
3198
31f8
0000
0000
ENDCHAR
STARTCHAR a/A
ENCODING 4771
SWIDTH 96 0
DWIDTH 16 0
BBX 16 16 0 -2
BITMAP
0000
0000
0600
0600
0600
0780
0180
03c0
06e0
0c60
0c60
0c60
0060
0060
0000
0000
ENDCHAR
STARTCHAR E
ENCODING 4772
SWIDTH 96 0
DWIDTH 16 0
BBX 16 16 0 -2
BITMAP
0000
0000
1800
1800
1800
1e00
0600
0e00
0f00
1b80
3980
31f0
3198
31f0
0000
0000
ENDCHAR
STARTCHAR I
ENCODING 4773
SWIDTH 96 0
DWIDTH 16 0
BBX 16 16 0 -2
BITMAP
0000
0000
0c00
0c00
0e00
0600
0300
0380
07c0
0ee0
0c60
0c60
0c60
0c60
0000
0000
ENDCHAR
STARTCHAR o/O
ENCODING 4774
SWIDTH 96 0
DWIDTH 16 0
BBX 16 16 0 -2
BITMAP
0000
0000
0600
0600
0600
0780
0180
03c0
06e0
0c60
0c60
0c60
0c00
0c00
0000
0000
ENDCHAR
STARTCHAR e3
ENCODING 4775
SWIDTH 96 0
DWIDTH 16 0
BBX 16 16 0 -2
BITMAP
0000
18c0
1fc0
3660
0600
0780
0180
0380
03c0
06e0
0e60
0c60
0c60
0c60
0000
0000
ENDCHAR
STARTCHAR ke
ENCODING 4776
SWIDTH 96 0
DWIDTH 16 0
BBX 16 16 0 -2
BITMAP
0000
0000
0000
1800
19c0
1fe0
1e30
0630
0630
0630
0630
0630
0630
0630
0000
0000
ENDCHAR
STARTCHAR ku
ENCODING 4777
SWIDTH 96 0
DWIDTH 16 0
BBX 16 16 0 -2
BITMAP
0000
0000
0000
6000
6700
7f80
78c0
18c0
18c0
18fc
18cc
18c0
18c0
18c0
0000
0000
ENDCHAR
STARTCHAR ki
ENCODING 4778
SWIDTH 96 0
DWIDTH 16 0
BBX 16 16 0 -2
BITMAP
0000
0000
0000
6000
6700
7f80
78c0
18c0
18c0
18c0
18c0
18c0
18cc
18fc
0000
0000
ENDCHAR
STARTCHAR ka
ENCODING 4779
SWIDTH 96 0
DWIDTH 16 0
BBX 16 16 0 -2
BITMAP
0000
0000
0000
1800
19c0
1fe0
1e30
0630
0630
0630
0630
0030
0030
0030
0000
0000
ENDCHAR
STARTCHAR kE
ENCODING 4780
SWIDTH 96 0
DWIDTH 16 0
BBX 16 16 0 -2
BITMAP
0000
0000
0000
6000
6700
7f80
78c0
18c0
18c0
18c0
18c0
18f8
18cc
18f8
0000
0000
ENDCHAR
STARTCHAR k
ENCODING 4781
SWIDTH 96 0
DWIDTH 16 0
BBX 16 16 0 -2
BITMAP
0000
0000
0000
1800
19c0
1be0
1e30
0c30
0e30
0630
0630
0630
0630
0630
0000
0000
ENDCHAR
STARTCHAR ko
ENCODING 4782
SWIDTH 96 0
DWIDTH 16 0
BBX 16 16 0 -2
BITMAP
0000
0000
0000
1800
19c0
1fe0
1e30
0630
0630
0630
0630
0600
0600
0600
0000
0000
ENDCHAR
STARTCHAR kWe
ENCODING 4784
SWIDTH 96 0
DWIDTH 16 0
BBX 16 16 0 -2
BITMAP
0000
0000
0000
6000
6600
7f00
7980
1980
19f8
19ac
19b8
1980
1980
1980
0000
0000
ENDCHAR
STARTCHAR kWi
ENCODING 4786
SWIDTH 96 0
DWIDTH 16 0
BBX 16 16 0 -2
BITMAP
0000
0000
0000
6000
6600
7f00
7980
1998
1998
19f8
198e
1986
1980
1980
0000
0000
ENDCHAR
STARTCHAR kWa
ENCODING 4787
SWIDTH 96 0
DWIDTH 16 0
BBX 16 16 0 -2
BITMAP
0000
0000
0000
1800
19c0
1fe0
1e30
0630
0630
0630
0630
0030
0030
0030
00fc
0186
ENDCHAR
STARTCHAR kWE
ENCODING 4788
SWIDTH 96 0
DWIDTH 16 0
BBX 16 16 0 -2
BITMAP
0000
0000
0000
6000
6700
7f80
78c0
18c0
18c0
18c0
18c0
00c0
00f8
00cc
03f8
0600
ENDCHAR
STARTCHAR kWu/kW
ENCODING 4789
SWIDTH 96 0
DWIDTH 16 0
BBX 16 16 0 -2
BITMAP
0000
0000
0000
6000
6630
7f30
79fc
198c
1980
1980
1980
1980
1980
1980
0000
0000
ENDCHAR
STARTCHAR Ke
ENCODING 4792
SWIDTH 96 0
DWIDTH 16 0
BBX 16 16 0 -2
BITMAP
0000
0000
6180
3f00
0c00
0dc0
0fe0
0630
0630
0630
0630
0630
0630
0630
0000
0000
ENDCHAR
STARTCHAR Ku
ENCODING 4793
SWIDTH 96 0
DWIDTH 16 0
BBX 16 16 0 -2
BITMAP
0000
0000
c300
7e00
1800
1b80
1fc0
0c60
0c60
0c7e
0c66
0c60
0c60
0c60
0000
0000
ENDCHAR
STARTCHAR Ki
ENCODING 4794
SWIDTH 96 0
DWIDTH 16 0
BBX 16 16 0 -2
BITMAP
0000
0000
c300
7e00
1800
1b80
1fc0
0c60
0c60
0c60
0c60
0c60
0c66
0c7e
0000
0000
ENDCHAR
STARTCHAR Ka
ENCODING 4795
SWIDTH 96 0
DWIDTH 16 0
BBX 16 16 0 -2
BITMAP
0000
0000
6180
3f00
0c00
0dc0
0fe0
0630
0630
0630
0630
0030
0030
0030
0000
0000
ENDCHAR
STARTCHAR KE
ENCODING 4796
SWIDTH 96 0
DWIDTH 16 0
BBX 16 16 0 -2
BITMAP
0000
0000
6180
3f00
0c00
0dc0
0fe0
0630
0630
0630
0630
063e
0633
063e
0000
0000
ENDCHAR
STARTCHAR K
ENCODING 4797
SWIDTH 96 0
DWIDTH 16 0
BBX 16 16 0 -2
BITMAP
0000
0000
6180
3f00
0c00
0ee0
0ff0
0318
0398
0198
0198
0198
0198
0198
0000
0000
ENDCHAR
STARTCHAR Ko
ENCODING 4798
SWIDTH 96 0
DWIDTH 16 0
BBX 16 16 0 -2
BITMAP
0000
0000
6180
3f00
0c00
0dc0
0fe0
0630
0630
0630
0630
0600
0600
0600
0000
0000
ENDCHAR
STARTCHAR KWe
ENCODING 4800
SWIDTH 96 0
DWIDTH 16 0
BBX 16 16 0 -2
BITMAP
0000
0000
c300
7e00
1800
1b80
1fc0
0c60
0c7e
0c6b
0c6e
0c60
0c60
0c60
0000
0000
ENDCHAR
STARTCHAR KWi
ENCODING 4802
SWIDTH 96 0
DWIDTH 16 0
BBX 16 16 0 -2
BITMAP
0000
0000
c300
7e00
1800
1b00
1f80
0ccc
0ccc
0cfc
0cc7
0cc3
0cc0
0cc0
0000
0000
ENDCHAR
STARTCHAR KWa
ENCODING 4803
SWIDTH 96 0
DWIDTH 16 0
BBX 16 16 0 -2
BITMAP
0000
0000
6180
3f00
0c00
0dc0
0fe0
0670
0630
0630
0630
0030
0030
0030
00fc
0186
ENDCHAR
STARTCHAR KWE
ENCODING 4804
SWIDTH 96 0
DWIDTH 16 0
BBX 16 16 0 -2
BITMAP
0000
0000
6180
3f00
0c00
0dc0
0fe0
0670
0630
0630
0630
0030
003e
0033
00fe
0180
ENDCHAR
STARTCHAR KWu/KW
ENCODING 4805
SWIDTH 96 0
DWIDTH 16 0
BBX 16 16 0 -2
BITMAP
0000
0000
c300
7e00
180c
1b8c
1fff
0c63
0c60
0c60
0c60
0c60
0c60
0c60
0000
0000
ENDCHAR
STARTCHAR we
ENCODING 4808
SWIDTH 96 0
DWIDTH 16 0
BBX 16 16 0 -2
BITMAP
0000
0000
0000
0000
0000
0ff0
1db8
3198
3198
3318
3330
3b70
1fc0
0000
0000
0000
ENDCHAR
STARTCHAR wu
ENCODING 4809
SWIDTH 96 0
DWIDTH 16 0
BBX 16 16 0 -2
BITMAP
0000
0000
0000
0000
0000
3fc0
76e0
c660
c660
cc60
cce0
edc6
7ffc
000c
0000
0000
ENDCHAR
STARTCHAR wi
ENCODING 4810
SWIDTH 96 0
DWIDTH 16 0
BBX 16 16 0 -2
BITMAP
0000
0000
0ff0
1db8
3198
3198
3318
3bb0
1fe0
0300
0300
0700
0660
07e0
0000
0000
ENDCHAR
STARTCHAR wa
ENCODING 4811
SWIDTH 96 0
DWIDTH 16 0
BBX 16 16 0 -2
BITMAP
0000
0000
0ff0
1db8
3198
3198
3318
3bb0
1fe0
0300
0300
0300
0300
0700
0000
0000
ENDCHAR
STARTCHAR wE
ENCODING 4812
SWIDTH 96 0
DWIDTH 16 0
BBX 16 16 0 -2
BITMAP
0000
0000
0ff0
1db8
3198
3198
3318
3bb0
1fe0
0300
0300
0780
0660
07c0
0000
0000
ENDCHAR
STARTCHAR w
ENCODING 4813
SWIDTH 96 0
DWIDTH 16 0
BBX 16 16 0 -2
BITMAP
0000
0000
0000
0000
0000
3fc0
76e0
c660
c67e
cc66
ccc2
edc0
7f00
0000
0000
0000
ENDCHAR
STARTCHAR wo
ENCODING 4814
SWIDTH 96 0
DWIDTH 16 0
BBX 16 16 0 -2
BITMAP
0000
0000
0ff0
1db8
3198
3198
3318
3bb0
1fe0
0300
0600
0c00
1800
1800
0000
0000
ENDCHAR
STARTCHAR `e/e2
ENCODING 4816
SWIDTH 96 0
DWIDTH 16 0
BBX 16 16 0 -2
BITMAP
0000
0000
0000
01e0
0630
0c30
0c30
0c30
0c30
0c30
0c30
0c30
07f0
0600
0000
0000
ENDCHAR
STARTCHAR `u/u2
ENCODING 4817
SWIDTH 96 0
DWIDTH 16 0
BBX 16 16 0 -2
BITMAP
0000
0000
0000
0780
18c0
30c0
30c0
30c0
30c0
30fc
30cc
30c0
1fc0
1800
0000
0000
ENDCHAR
STARTCHAR `i/i2
ENCODING 4818
SWIDTH 96 0
DWIDTH 16 0
BBX 16 16 0 -2
BITMAP
0000
0000
0000
1f00
3180
6180
6180
6180
3fc0
00c0
00c0
0180
0198
01f8
0000
0000
ENDCHAR
STARTCHAR `a/A2
ENCODING 4819
SWIDTH 96 0
DWIDTH 16 0
BBX 16 16 0 -2
BITMAP
0000
0000
0000
07c0
0c60
1860
1860
1860
0ff0
0030
0030
0030
0060
0060
0000
0000
ENDCHAR
STARTCHAR `E/E2
ENCODING 4820
SWIDTH 96 0
DWIDTH 16 0
BBX 16 16 0 -2
BITMAP
0000
0000
0000
1f00
3180
6180
6180
6180
3fc0
00c0
00c0
01f0
0198
01f0
0000
0000
ENDCHAR
STARTCHAR `I/I2
ENCODING 4821
SWIDTH 96 0
DWIDTH 16 0
BBX 16 16 0 -2
BITMAP
0000
0180
0180
0180
07e0
0e30
0c30
0c30
0c30
0c30
0c30
0c30
07f0
0600
0000
0000
ENDCHAR
STARTCHAR `o/o2
ENCODING 4822
SWIDTH 96 0
DWIDTH 16 0
BBX 16 16 0 -2
BITMAP
0000
0000
03c0
0660
0c30
0c30
0c30
0e70
07e0
03c0
0700
0c00
0c00
0c00
0000
0000
ENDCHAR
STARTCHAR ze
ENCODING 4824
SWIDTH 96 0
DWIDTH 16 0
BBX 16 16 0 -2
BITMAP
0000
0000
0c60
0c60
0c60
0c60
0c60
0fe0
0fe0
0c60
0c60
0c60
0c60
0c60
0000
0000
ENDCHAR
STARTCHAR zu
ENCODING 4825
SWIDTH 96 0
DWIDTH 16 0
BBX 16 16 0 -2
BITMAP
0000
0000
3180
3180
3180
3180
3180
3f80
3f80
31f8
3198
3198
3180
3180
0000
0000
ENDCHAR
STARTCHAR zi
ENCODING 4826
SWIDTH 96 0
DWIDTH 16 0
BBX 16 16 0 -2
BITMAP
0000
0000
3180
3180
3180
3180
3180
3f80
3f80
3180
3180
3180
3198
31f8
0000
0000
ENDCHAR
STARTCHAR za
ENCODING 4827
SWIDTH 96 0
DWIDTH 16 0
BBX 16 16 0 -2
BITMAP
0000
0000
0c60
0c60
0c60
0c60
0fe0
0fe0
0c60
0c60
0c60
0060
0060
0060
0000
0000
ENDCHAR
STARTCHAR zE
ENCODING 4828
SWIDTH 96 0
DWIDTH 16 0
BBX 16 16 0 -2
BITMAP
0000
0000
18c0
18c0
18c0
18c0
18c0
1fc0
1fc0
18c0
18c0
18f8
18cc
18f8
0000
0000
ENDCHAR
STARTCHAR z
ENCODING 4829
SWIDTH 96 0
DWIDTH 16 0
BBX 16 16 0 -2
BITMAP
0000
0000
1c30
3630
3630
0630
0630
07f0
07f0
0630
0630
0630
0630
0630
0000
0000
ENDCHAR
STARTCHAR zo
ENCODING 4830
SWIDTH 96 0
DWIDTH 16 0
BBX 16 16 0 -2
BITMAP
0000
0000
0c60
0c60
0c60
0c60
0fe0
0fe0
0c60
0c60
0c60
0c00
0c00
0c00
0000
0000
ENDCHAR
STARTCHAR zWa
ENCODING 4831
SWIDTH 96 0
DWIDTH 16 0
BBX 16 16 0 -2
BITMAP
0000
0000
0c60
0c60
0c60
0c60
0fe0
0fe0
0c60
0c60
0c60
0060
0060
0060
01f8
030c
ENDCHAR
STARTCHAR Ze
ENCODING 4832
SWIDTH 96 0
DWIDTH 16 0
BBX 16 16 0 -2
BITMAP
0000
0000
1c38
366c
366c
0660
0660
07e0
07e0
0660
0660
0660
0660
0660
0000
0000
ENDCHAR
STARTCHAR Zu
ENCODING 4833
SWIDTH 96 0
DWIDTH 16 0
BBX 16 16 0 -2
BITMAP
0000
0000
3870
6cd8
6cd8
0cc0
0cc0
0fc0
0fc0
0cfc
0ccc
0ccc
0cc0
0cc0
0000
0000
ENDCHAR
STARTCHAR Zi
ENCODING 4834
SWIDTH 96 0
DWIDTH 16 0
BBX 16 16 0 -2
BITMAP
0000
0000
3870
6cd8
6cd8
0cc0
0cc0
0fc0
0fc0
0cc0
0cc0
0cc0
0ccc
0cfc
0000
0000
ENDCHAR
STARTCHAR Za
ENCODING 4835
SWIDTH 96 0
DWIDTH 16 0
BBX 16 16 0 -2
BITMAP
0000
0000
1c38
366c
366c
0660
07e0
07e0
0660
0660
0660
0060
0060
0060
0000
0000
ENDCHAR
STARTCHAR ZE
ENCODING 4836
SWIDTH 96 0
DWIDTH 16 0
BBX 16 16 0 -2
BITMAP
0000
0000
3870
6cd8
6cd8
0cc0
0cc0
0fc0
0fc0
0cc0
0cc0
0cf8
0ccc
0cf8
0000
0000
ENDCHAR
STARTCHAR Z
ENCODING 4837
SWIDTH 96 0
DWIDTH 16 0
BBX 16 16 0 -2
BITMAP
0000
6180
3f00
0c00
1c38
366c
366c
0660
07e0
07e0
0660
0660
0660
0660
0000
0000
ENDCHAR
STARTCHAR Zo
ENCODING 4838
SWIDTH 96 0
DWIDTH 16 0
BBX 16 16 0 -2
BITMAP
0000
0000
1c38
366c
366c
0660
07e0
07e0
0660
0660
0660
0600
0600
0600
0000
0000
ENDCHAR
STARTCHAR ZWa
ENCODING 4839
SWIDTH 96 0
DWIDTH 16 0
BBX 16 16 0 -2
BITMAP
0000
0000
1c38
366c
366c
0660
07e0
07e0
0660
0660
0660
0060
0060
0060
01f8
030c
ENDCHAR
STARTCHAR ye
ENCODING 4840
SWIDTH 96 0
DWIDTH 16 0
BBX 16 16 0 -2
BITMAP
0000
0000
0380
06c0
0c60
0c60
0c60
0c60
0ec0
0780
0300
0300
0300
0300
0000
0000
ENDCHAR
STARTCHAR yu
ENCODING 4841
SWIDTH 96 0
DWIDTH 16 0
BBX 16 16 0 -2
BITMAP
0000
0000
0380
06c0
0c60
0c60
0c60
0c60
0ec0
0780
0300
03f0
0330
0300
0000
0000
ENDCHAR
STARTCHAR yi
ENCODING 4842
SWIDTH 96 0
DWIDTH 16 0
BBX 16 16 0 -2
BITMAP
0000
0000
0700
0d80
18c0
18c0
18c0
18c0
1d80
0f00
0660
07f8
0618
0600
0000
0000
ENDCHAR
STARTCHAR ya
ENCODING 4843
SWIDTH 96 0
DWIDTH 16 0
BBX 16 16 0 -2
BITMAP
0000
0000
01c0
0360
0630
0630
0630
0660
07c0
0380
01c0
0060
01c0
0380
0000
0000
ENDCHAR
STARTCHAR yE
ENCODING 4844
SWIDTH 96 0
DWIDTH 16 0
BBX 16 16 0 -2
BITMAP
0000
0000
0700
0d80
18c0
18c0
18c0
18c0
1d80
0f00
06f0
0798
06f0
0600
0000
0000
ENDCHAR
STARTCHAR y
ENCODING 4845
SWIDTH 96 0
DWIDTH 16 0
BBX 16 16 0 -2
BITMAP
0000
0000
0000
0780
0cc0
18c0
18c0
18c0
0d80
0f30
0730
03e0
3e00
7000
6000
0000
ENDCHAR
STARTCHAR yo
ENCODING 4846
SWIDTH 96 0
DWIDTH 16 0
BBX 16 16 0 -2
BITMAP
0000
0000
0e00
1b00
3180
31f8
3198
3180
3b00
1e00
0c00
0c00
0c00
0c00
0000
0000
ENDCHAR
STARTCHAR yWa
ENCODING 4847
SWIDTH 96 0
DWIDTH 16 0
BBX 16 16 0 -2
BITMAP
1c70
0fe0
0380
0380
06c0
0c60
0c60
0c60
0c60
0ec0
0780
0300
0300
0300
0300
0000
ENDCHAR
STARTCHAR de
ENCODING 4848
SWIDTH 96 0
DWIDTH 16 0
BBX 16 16 0 -2
BITMAP
0000
0000
0380
07c0
0c40
0c40
0cc0
0f80
0600
0300
0300
0180
1ff8
1818
0000
0000
ENDCHAR
STARTCHAR du
ENCODING 4849
SWIDTH 96 0
DWIDTH 16 0
BBX 16 16 0 -2
BITMAP
0000
0000
0700
0f80
1880
1980
1f00
0c00
0600
1fc0
30c0
30fc
018c
0180
0000
0000
ENDCHAR
STARTCHAR di
ENCODING 4850
SWIDTH 96 0
DWIDTH 16 0
BBX 16 16 0 -2
BITMAP
0000
0000
0700
0f80
1880
1980
1f00
0c00
0600
1fc0
30c0
30c0
0198
01f8
0000
0000
ENDCHAR
STARTCHAR da
ENCODING 4851
SWIDTH 96 0
DWIDTH 16 0
BBX 16 16 0 -2
BITMAP
0000
0000
01c0
03e0
0620
0660
07c0
0300
0180
0ff0
0c30
0c30
0030
0030
0000
0000
ENDCHAR
STARTCHAR dE
ENCODING 4852
SWIDTH 96 0
DWIDTH 16 0
BBX 16 16 0 -2
BITMAP
0000
0000
0700
0f80
1880
1880
1980
1f00
0c00
0600
0600
03f0
3f98
30f0
0000
0000
ENDCHAR
STARTCHAR d
ENCODING 4853
SWIDTH 96 0
DWIDTH 16 0
BBX 16 16 0 -2
BITMAP
0000
0000
0700
0f80
18f8
1898
1980
1f00
0c00
0600
0600
0300
3ff0
3030
0000
0000
ENDCHAR
STARTCHAR do
ENCODING 4854
SWIDTH 96 0
DWIDTH 16 0
BBX 16 16 0 -2
BITMAP
0000
0000
01c0
03e0
0620
0660
07c0
0380
07f0
0c30
1800
1800
1800
1800
0000
0000
ENDCHAR
STARTCHAR dWa
ENCODING 4855
SWIDTH 96 0
DWIDTH 16 0
BBX 16 16 0 -2
BITMAP
0000
0000
01c0
03e0
0620
0660
07c0
0300
0180
0ff0
0c30
0c30
0030
0030
00fc
0186
ENDCHAR
STARTCHAR De
ENCODING 4856
SWIDTH 96 0
DWIDTH 16 0
BBX 16 16 0 -2
BITMAP
0000
0000
0100
0100
0380
07c0
0c40
0cc0
0f80
0600
0300
0180
0ff0
0c30
0000
0000
ENDCHAR
STARTCHAR Du
ENCODING 4857
SWIDTH 96 0
DWIDTH 16 0
BBX 16 16 0 -2
BITMAP
0000
0000
0200
0200
0700
0f80
1880
1980
1f00
0c00
1fc0
30fc
318c
0180
0000
0000
ENDCHAR
STARTCHAR Di
ENCODING 4858
SWIDTH 96 0
DWIDTH 16 0
BBX 16 16 0 -2
BITMAP
0000
0000
0200
0200
0700
0f80
1880
1980
1f00
0c00
1fc0
30c0
3198
01f8
0000
0000
ENDCHAR
STARTCHAR Da
ENCODING 4859
SWIDTH 96 0
DWIDTH 16 0
BBX 16 16 0 -2
BITMAP
0000
0000
0100
0100
0380
07c0
0c40
0cc0
0f80
0600
1fe0
1860
0060
0060
0000
0000
ENDCHAR
STARTCHAR DE
ENCODING 4860
SWIDTH 96 0
DWIDTH 16 0
BBX 16 16 0 -2
BITMAP
0000
0000
0400
0400
0e00
1f00
3100
3300
3e00
1800
0c00
06f0
3f98
30f0
0000
0000
ENDCHAR
STARTCHAR D
ENCODING 4861
SWIDTH 96 0
DWIDTH 16 0
BBX 16 16 0 -2
BITMAP
0000
0000
0200
0200
0700
0f80
18f8
1998
1f00
0c00
0600
0300
1fe0
1860
0000
0000
ENDCHAR
STARTCHAR Do
ENCODING 4862
SWIDTH 96 0
DWIDTH 16 0
BBX 16 16 0 -2
BITMAP
0000
0000
0100
0100
0380
07c0
0c40
0cc0
0f80
07f0
0c30
1800
1800
1800
0000
0000
ENDCHAR
STARTCHAR DWa
ENCODING 4863
SWIDTH 96 0
DWIDTH 16 0
BBX 16 16 0 -2
BITMAP
0080
0080
01c0
03e0
0620
0660
07c0
0300
0180
0ff0
0c30
0c30
0030
0030
00fc
0186
ENDCHAR
STARTCHAR je
ENCODING 4864
SWIDTH 96 0
DWIDTH 16 0
BBX 16 16 0 -2
BITMAP
0000
3030
1fe0
0300
0780
0cc0
0c40
0cc0
0780
0600
0700
0300
1fe0
1860
0000
0000
ENDCHAR
STARTCHAR ju
ENCODING 4865
SWIDTH 96 0
DWIDTH 16 0
BBX 16 16 0 -2
BITMAP
0000
6060
3fc0
0600
0f00
1980
1980
0f00
0600
1fc0
30c0
30fc
018c
0180
0000
0000
ENDCHAR
STARTCHAR ji
ENCODING 4866
SWIDTH 96 0
DWIDTH 16 0
BBX 16 16 0 -2
BITMAP
0000
6060
3fc0
0600
0f00
1980
1980
0f00
0600
1fc0
30c0
30c0
0198
01f8
0000
0000
ENDCHAR
STARTCHAR ja
ENCODING 4867
SWIDTH 96 0
DWIDTH 16 0
BBX 16 16 0 -2
BITMAP
0000
3030
1fe0
0300
0780
0cc0
0cc0
0780
0300
1fe0
1860
1860
0060
0060
0000
0000
ENDCHAR
STARTCHAR jE
ENCODING 4868
SWIDTH 96 0
DWIDTH 16 0
BBX 16 16 0 -2
BITMAP
0000
6060
3fc0
0600
0f00
1980
1880
1980
0f00
0c00
0e00
07f0
3f98
30f0
0000
0000
ENDCHAR
STARTCHAR j
ENCODING 4869
SWIDTH 96 0
DWIDTH 16 0
BBX 16 16 0 -2
BITMAP
0000
3030
1fe0
0300
0780
0cc0
0c7c
0ccc
0780
0600
0700
0300
1fe0
1860
0000
0000
ENDCHAR
STARTCHAR jo
ENCODING 4870
SWIDTH 96 0
DWIDTH 16 0
BBX 16 16 0 -2
BITMAP
0000
3030
1fe0
0300
0780
0cc0
0cc0
0780
07f0
0c30
1800
1800
1800
1800
0000
0000
ENDCHAR
STARTCHAR jWa
ENCODING 4871
SWIDTH 96 0
DWIDTH 16 0
BBX 16 16 0 -2
BITMAP
0000
3030
1fe0
0300
0780
0cc0
0cc0
0780
0300
1fe0
1860
1860
0060
0060
03fc
070e
ENDCHAR
STARTCHAR ge
ENCODING 4872
SWIDTH 96 0
DWIDTH 16 0
BBX 16 16 0 -2
BITMAP
0000
0000
0000
0f80
18c0
18c0
00c0
00c0
00c0
0180
0180
0180
0180
0180
0000
0000
ENDCHAR
STARTCHAR gu
ENCODING 4873
SWIDTH 96 0
DWIDTH 16 0
BBX 16 16 0 -2
BITMAP
0000
0000
0000
1f00
3180
3180
0180
0180
0180
03f8
0318
0300
0300
0300
0000
0000
ENDCHAR
STARTCHAR gi
ENCODING 4874
SWIDTH 96 0
DWIDTH 16 0
BBX 16 16 0 -2
BITMAP
0000
0000
0000
0f80
18c0
18c0
00c0
00c0
00c0
0180
0180
0180
0198
01f8
0000
0000
ENDCHAR
STARTCHAR ga
ENCODING 4875
SWIDTH 96 0
DWIDTH 16 0
BBX 16 16 0 -2
BITMAP
0000
0000
0000
0780
0fe0
0c60
0060
0060
0060
00c0
01c0
0780
0e00
0c00
0000
0000
ENDCHAR
STARTCHAR gE
ENCODING 4876
SWIDTH 96 0
DWIDTH 16 0
BBX 16 16 0 -2
BITMAP
0000
0000
0000
0f80
18c0
18c0
00c0
00c0
00c0
0180
0180
01f0
0198
01f0
0000
0000
ENDCHAR
STARTCHAR g
ENCODING 4877
SWIDTH 96 0
DWIDTH 16 0
BBX 16 16 0 -2
BITMAP
0000
0000
0000
0fe0
19b0
0f30
0030
0030
0060
0060
0060
0060
0060
0060
0000
0000
ENDCHAR
STARTCHAR go
ENCODING 4878
SWIDTH 96 0
DWIDTH 16 0
BBX 16 16 0 -2
BITMAP
0000
0000
0100
0100
0100
07c0
0c60
0c60
0060
0040
00c0
00c0
00c0
00c0
0000
0000
ENDCHAR
STARTCHAR gWe
ENCODING 4880
SWIDTH 96 0
DWIDTH 16 0
BBX 16 16 0 -2
BITMAP
0000
0000
0000
1f00
3180
3180
0180
0180
01f8
03ac
0338
0300
0300
0300
0000
0000
ENDCHAR
STARTCHAR gWi
ENCODING 4882
SWIDTH 96 0
DWIDTH 16 0
BBX 16 16 0 -2
BITMAP
0000
0000
0000
1f00
3180
3180
0180
01b0
01b0
03f0
031c
030c
0300
0300
0000
0000
ENDCHAR
STARTCHAR gWa
ENCODING 4883
SWIDTH 96 0
DWIDTH 16 0
BBX 16 16 0 -2
BITMAP
0000
0000
0000
0780
0cc0
0cc0
00c0
07e0
0660
0060
0060
0060
0060
0060
0000
0000
ENDCHAR
STARTCHAR gWE
ENCODING 4884
SWIDTH 96 0
DWIDTH 16 0
BBX 16 16 0 -2
BITMAP
0000
0000
0000
0f80
18c0
18c0
00c0
00c0
00c0
0180
0180
0180
01f0
0198
07f0
0c00
ENDCHAR
STARTCHAR gWu/gW
ENCODING 4885
SWIDTH 96 0
DWIDTH 16 0
BBX 16 16 0 -2
BITMAP
0000
0000
0000
1f00
31b0
31b0
01fc
018c
0180
0380
0300
0300
0300
0300
0000
0000
ENDCHAR
STARTCHAR Ge
ENCODING 4888
SWIDTH 96 0
DWIDTH 16 0
BBX 16 16 0 -2
BITMAP
0000
0000
0c30
07e0
0000
07c0
0c60
0c60
0060
0040
00c0
00c0
00c0
00c0
0000
0000
ENDCHAR
STARTCHAR Gu
ENCODING 4889
SWIDTH 96 0
DWIDTH 16 0
BBX 16 16 0 -2
BITMAP
0000
0000
30c0
1f80
0000
1f00
3180
3180
0180
0180
03f8
0318
0300
0300
0000
0000
ENDCHAR
STARTCHAR Gi
ENCODING 4890
SWIDTH 96 0
DWIDTH 16 0
BBX 16 16 0 -2
BITMAP
0000
0000
1860
0fc0
0000
0f80
18c0
18c0
00c0
0080
0180
0180
0198
01f8
0000
0000
ENDCHAR
STARTCHAR Ga
ENCODING 4891
SWIDTH 96 0
DWIDTH 16 0
BBX 16 16 0 -2
BITMAP
0000
0000
0c30
07e0
0000
03c0
07f0
0430
0030
0030
00e0
03c0
0700
0e00
0000
0000
ENDCHAR
STARTCHAR GE
ENCODING 4892
SWIDTH 96 0
DWIDTH 16 0
BBX 16 16 0 -2
BITMAP
0000
0000
1860
0fc0
0000
0f80
18c0
18c0
00c0
0080
0180
01f0
0198
01f0
0000
0000
ENDCHAR
STARTCHAR G
ENCODING 4893
SWIDTH 96 0
DWIDTH 16 0
BBX 16 16 0 -2
BITMAP
0000
0000
1860
0fc0
0000
0fe0
19b0
0f30
0030
0020
0060
0060
0060
0060
0000
0000
ENDCHAR
STARTCHAR Go
ENCODING 4894
SWIDTH 96 0
DWIDTH 16 0
BBX 16 16 0 -2
BITMAP
0000
0000
0c60
07c0
0100
07c0
0c60
0c60
0060
0040
00c0
00c0
00c0
00c0
0000
0000
ENDCHAR
STARTCHAR GWa
ENCODING 4895
SWIDTH 96 0
DWIDTH 16 0
BBX 16 16 0 -2
BITMAP
0c30
07e0
0000
0780
0cc0
0cc0
00c0
07e0
0660
0060
0060
0060
0060
0060
0000
0000
ENDCHAR
STARTCHAR Te
ENCODING 4896
SWIDTH 96 0
DWIDTH 16 0
BBX 16 16 0 -2
BITMAP
0000
0000
0000
0000
07c0
0d60
0d60
1930
1930
1930
1930
1930
1930
1930
0000
0000
ENDCHAR
STARTCHAR Tu
ENCODING 4897
SWIDTH 96 0
DWIDTH 16 0
BBX 16 16 0 -2
BITMAP
0000
0000
0000
0000
1f00
3580
3580
64c0
64c0
64fc
64cc
64c0
64c0
64c0
0000
0000
ENDCHAR
STARTCHAR Ti
ENCODING 4898
SWIDTH 96 0
DWIDTH 16 0
BBX 16 16 0 -2
BITMAP
0000
0000
0000
0000
1f00
3580
3580
64c0
64c0
64c0
64c0
64c0
64cc
64fc
0000
0000
ENDCHAR
STARTCHAR Ta
ENCODING 4899
SWIDTH 96 0
DWIDTH 16 0
BBX 16 16 0 -2
BITMAP
0000
0000
0000
07c0
0d60
0d60
1930
1930
1930
1930
0030
0030
0030
0030
0000
0000
ENDCHAR
STARTCHAR TE
ENCODING 4900
SWIDTH 96 0
DWIDTH 16 0
BBX 16 16 0 -2
BITMAP
0000
0000
0000
1f00
3580
3580
64c0
64c0
64c0
64c0
64c0
64f8
64cc
64f8
0000
0000
ENDCHAR
STARTCHAR T
ENCODING 4901
SWIDTH 96 0
DWIDTH 16 0
BBX 16 16 0 -2
BITMAP
0000
0000
0000
0fe0
1ff0
1330
3318
3398
3198
0180
0180
0180
0180
0180
0000
0000
ENDCHAR
STARTCHAR To
ENCODING 4902
SWIDTH 96 0
DWIDTH 16 0
BBX 16 16 0 -2
BITMAP
0000
0000
0000
07c0
0d60
0d60
1930
1930
1930
1930
1800
1800
1800
1800
0000
0000
ENDCHAR
STARTCHAR TWa
ENCODING 4903
SWIDTH 96 0
DWIDTH 16 0
BBX 16 16 0 -2
BITMAP
0000
0000
0000
07c0
0d60
0d60
1930
1930
1930
1930
0030
0030
0030
0030
00fc
0186
ENDCHAR
STARTCHAR Ce
ENCODING 4904
SWIDTH 96 0
DWIDTH 16 0
BBX 16 16 0 -2
BITMAP
0000
0000
0000
0000
1f80
3fc0
6260
c230
c230
c230
f338
dab6
cab2
fbbe
0000
0000
ENDCHAR
STARTCHAR Cu
ENCODING 4905
SWIDTH 96 0
DWIDTH 16 0
BBX 16 16 0 -2
BITMAP
0000
0000
0000
0000
1f80
3fc0
6260
c230
c23f
c233
f338
dab4
cab2
fbbe
0000
0000
ENDCHAR
STARTCHAR Ci
ENCODING 4906
SWIDTH 96 0
DWIDTH 16 0
BBX 16 16 0 -2
BITMAP
0000
0000
0000
0000
1f80
3fc0
6260
c230
c230
c230
f330
dab0
cab3
fbbf
0000
0000
ENDCHAR
STARTCHAR Ca
ENCODING 4907
SWIDTH 96 0
DWIDTH 16 0
BBX 16 16 0 -2
BITMAP
0000
0000
0fe0
1ff0
3118
6118
7198
6958
6558
7dd8
0018
0034
0032
003e
0000
0000
ENDCHAR
STARTCHAR CE
ENCODING 4908
SWIDTH 96 0
DWIDTH 16 0
BBX 16 16 0 -2
BITMAP
0000
0000
0000
0000
1f80
3fc0
6260
c23f
c239
c237
f330
dabc
cab2
fbbe
0000
0000
ENDCHAR
STARTCHAR C
ENCODING 4909
SWIDTH 96 0
DWIDTH 16 0
BBX 16 16 0 -2
BITMAP
0000
0000
0000
1fc0
7fe0
c630
e638
9724
f33c
0300
0380
0340
0320
03e0
0000
0000
ENDCHAR
STARTCHAR Co
ENCODING 4910
SWIDTH 96 0
DWIDTH 16 0
BBX 16 16 0 -2
BITMAP
0000
0000
0fe0
1ff0
1a18
3218
2318
6294
6252
639c
7000
6800
6400
7c00
0000
0000
ENDCHAR
STARTCHAR CWa
ENCODING 4911
SWIDTH 96 0
DWIDTH 16 0
BBX 16 16 0 -2
BITMAP
0000
0000
0000
0fe0
1ff0
3118
6118
7198
6958
6558
7dd8
0018
0030
0030
00fc
0186
ENDCHAR
STARTCHAR Pe
ENCODING 4912
SWIDTH 96 0
DWIDTH 16 0
BBX 16 16 0 -2
BITMAP
0000
0000
0180
0180
0180
03c0
0660
0660
03c0
07e0
0e70
0c30
0c30
0c30
0000
0000
ENDCHAR
STARTCHAR Pu
ENCODING 4913
SWIDTH 96 0
DWIDTH 16 0
BBX 16 16 0 -2
BITMAP
0000
0000
0600
0600
0600
0f00
1980
1980
0f00
1f80
39c0
30fc
30cc
30c0
0000
0000
ENDCHAR
STARTCHAR Pi
ENCODING 4914
SWIDTH 96 0
DWIDTH 16 0
BBX 16 16 0 -2
BITMAP
0000
0000
0600
0600
0600
0f00
1980
1980
0f00
1f80
39c0
30c0
30cc
30fc
0000
0000
ENDCHAR
STARTCHAR Pa
ENCODING 4915
SWIDTH 96 0
DWIDTH 16 0
BBX 16 16 0 -2
BITMAP
0000
0000
0180
0180
0180
03c0
0660
03c0
07e0
0e70
0c70
0c30
0030
0030
0000
0000
ENDCHAR
STARTCHAR PE
ENCODING 4916
SWIDTH 96 0
DWIDTH 16 0
BBX 16 16 0 -2
BITMAP
0000
0000
0600
0600
0600
0f00
1980
1980
0f00
1f80
39c0
30f8
30cc
30f8
0000
0000
ENDCHAR
STARTCHAR P
ENCODING 4917
SWIDTH 96 0
DWIDTH 16 0
BBX 16 16 0 -2
BITMAP
0000
0000
0600
0600
0600
0f00
19f8
1998
0f00
1f80
39c0
30c0
30c0
30c0
0000
0000
ENDCHAR
STARTCHAR Po
ENCODING 4918
SWIDTH 96 0
DWIDTH 16 0
BBX 16 16 0 -2
BITMAP
0000
0000
0180
0180
0180
03c0
0660
03c0
07e0
0e70
0c30
0c30
0c00
0c00
0000
0000
ENDCHAR
STARTCHAR PWa
ENCODING 4919
SWIDTH 96 0
DWIDTH 16 0
BBX 16 16 0 -2
BITMAP
0000
0000
0300
0300
0300
0780
0cc0
0780
0fc0
1cc0
18e0
1860
0060
0060
01f8
030c
ENDCHAR
STARTCHAR Se
ENCODING 4920
SWIDTH 96 0
DWIDTH 16 0
BBX 16 16 0 -2
BITMAP
0000
0000
0000
0000
0180
03c0
0660
0660
03c0
07e0
0e70
0c30
0c30
0c30
0000
0000
ENDCHAR
STARTCHAR Su
ENCODING 4921
SWIDTH 96 0
DWIDTH 16 0
BBX 16 16 0 -2
BITMAP
0000
0000
0000
0000
0600
0f00
1980
1980
0f00
1f80
39c0
30fc
30cc
30c0
0000
0000
ENDCHAR
STARTCHAR Si
ENCODING 4922
SWIDTH 96 0
DWIDTH 16 0
BBX 16 16 0 -2
BITMAP
0000
0000
0000
0000
0600
0f00
1980
1980
0f00
1f80
39c0
30c0
30cc
30fc
0000
0000
ENDCHAR
STARTCHAR Sa
ENCODING 4923
SWIDTH 96 0
DWIDTH 16 0
BBX 16 16 0 -2
BITMAP
0000
0000
0000
0300
0780
0cc0
0cc0
0780
0fc0
1cc0
18e0
1860
0060
0060
0000
0000
ENDCHAR
STARTCHAR SE
ENCODING 4924
SWIDTH 96 0
DWIDTH 16 0
BBX 16 16 0 -2
BITMAP
0000
0000
0000
0000
0600
0f00
1980
1980
0f00
1f80
39c0
30f0
30d8
30f0
0000
0000
ENDCHAR
STARTCHAR S
ENCODING 4925
SWIDTH 96 0
DWIDTH 16 0
BBX 16 16 0 -2
BITMAP
0000
0000
0000
0000
0600
0f00
19f8
1998
0f00
1f80
39c0
30c0
30c0
30c0
0000
0000
ENDCHAR
STARTCHAR So
ENCODING 4926
SWIDTH 96 0
DWIDTH 16 0
BBX 16 16 0 -2
BITMAP
0000
0000
0000
0300
0780
0cc0
0cc0
0780
0fc0
1ce0
1860
1860
1800
1800
0000
0000
ENDCHAR
STARTCHAR SWa
ENCODING 4927
SWIDTH 96 0
DWIDTH 16 0
BBX 16 16 0 -2
BITMAP
0000
0000
0000
0300
0780
0cc0
0cc0
0780
0fc0
1cc0
18e0
1860
0060
0060
01f8
030c
ENDCHAR
STARTCHAR `Se/S2e
ENCODING 4928
SWIDTH 96 0
DWIDTH 16 0
BBX 16 16 0 -2
BITMAP
0000
0000
0000
01e0
0630
0c30
0c30
0c30
0ff0
0c30
0c30
0c30
07f0
0600
0000
0000
ENDCHAR
STARTCHAR `Su/S2u
ENCODING 4929
SWIDTH 96 0
DWIDTH 16 0
BBX 16 16 0 -2
BITMAP
0000
0000
0000
0780
18c0
30c0
30c0
30c0
3fc0
30fc
30cc
30c0
1fc0
1800
0000
0000
ENDCHAR
STARTCHAR `Si/S2i
ENCODING 4930
SWIDTH 96 0
DWIDTH 16 0
BBX 16 16 0 -2
BITMAP
0000
0000
7e00
c300
c300
ff00
c300
c300
7f00
0300
0300
0300
0330
03f0
0000
0000
ENDCHAR
STARTCHAR `Sa/S2a
ENCODING 4931
SWIDTH 96 0
DWIDTH 16 0
BBX 16 16 0 -2
BITMAP
0000
0000
7e00
c300
c300
ff00
c300
c300
7f00
0300
0300
0300
0300
0300
0000
0000
ENDCHAR
STARTCHAR `SE/S2E
ENCODING 4932
SWIDTH 96 0
DWIDTH 16 0
BBX 16 16 0 -2
BITMAP
0000
0000
7e00
c300
c300
ff00
c300
c300
7f00
0300
0300
03e0
0330
03e0
0000
0000
ENDCHAR
STARTCHAR `S/S2
ENCODING 4933
SWIDTH 96 0
DWIDTH 16 0
BBX 16 16 0 -2
BITMAP
0000
0180
0180
0180
07e0
0e30
0c30
0c30
0ff0
0c30
0c30
0c30
07f0
0600
0000
0000
ENDCHAR
STARTCHAR `So/S2o
ENCODING 4934
SWIDTH 96 0
DWIDTH 16 0
BBX 16 16 0 -2
BITMAP
0000
0000
03c0
0660
0c30
0ff0
0c30
0e70
07e0
03c0
0700
0c00
0c00
0c00
0000
0000
ENDCHAR
STARTCHAR fe
ENCODING 4936
SWIDTH 96 0
DWIDTH 16 0
BBX 16 16 0 -2
BITMAP
0000
0000
0000
00c0
0040
00c0
0180
0300
0600
0f00
1980
1888
0ff8
03e8
0000
0000
ENDCHAR
STARTCHAR fu
ENCODING 4937
SWIDTH 96 0
DWIDTH 16 0
BBX 16 16 0 -2
BITMAP
0000
0000
0000
0000
0080
0180
0300
0600
0c00
1f00
1910
19f0
1fc0
0300
0600
0600
ENDCHAR
STARTCHAR fi
ENCODING 4938
SWIDTH 96 0
DWIDTH 16 0
BBX 16 16 0 -2
BITMAP
0000
0000
0000
0180
0080
0180
0300
0600
0c00
1e30
3310
3130
1fe0
0f80
0000
0000
ENDCHAR
STARTCHAR fa
ENCODING 4939
SWIDTH 96 0
DWIDTH 16 0
BBX 16 16 0 -2
BITMAP
0000
0000
0000
0000
0200
0300
0600
0400
0c00
1c00
3600
3320
1ff0
0310
0300
0300
ENDCHAR
STARTCHAR fE
ENCODING 4940
SWIDTH 96 0
DWIDTH 16 0
BBX 16 16 0 -2
BITMAP
0000
0000
0180
0080
0180
0300
0600
0c00
1e00
3300
3130
1fe8
07c8
0070
0000
0000
ENDCHAR
STARTCHAR f
ENCODING 4941
SWIDTH 96 0
DWIDTH 16 0
BBX 16 16 0 -2
BITMAP
0000
0000
0000
0000
0f80
19c0
10c0
3000
3000
3e00
33c0
3740
1b00
0300
0300
0300
ENDCHAR
STARTCHAR fo
ENCODING 4942
SWIDTH 96 0
DWIDTH 16 0
BBX 16 16 0 -2
BITMAP
0000
0000
0000
07e0
0f90
18f0
3000
3000
3000
3c00
3a00
3130
1b60
0fe0
0000
0000
ENDCHAR
STARTCHAR fWa
ENCODING 4943
SWIDTH 96 0
DWIDTH 16 0
BBX 16 16 0 -2
BITMAP
0000
0000
0000
0200
0300
0600
0400
0c00
1c00
3600
3320
1ff0
0310
0300
0fc0
1860
ENDCHAR
STARTCHAR pe
ENCODING 4944
SWIDTH 96 0
DWIDTH 16 0
BBX 16 16 0 -2
BITMAP
0000
0000
0c30
0ff0
1ff8
1998
0180
0180
0180
0180
0180
0180
0180
0180
0000
0000
ENDCHAR
STARTCHAR pu
ENCODING 4945
SWIDTH 96 0
DWIDTH 16 0
BBX 16 16 0 -2
BITMAP
0000
0000
0c30
0ff0
1ff8
1998
0180
0180
0180
01f8
0198
0180
0180
0180
0000
0000
ENDCHAR
STARTCHAR pi
ENCODING 4946
SWIDTH 96 0
DWIDTH 16 0
BBX 16 16 0 -2
BITMAP
0000
0000
0c30
0ff0
1ff8
1998
0180
0180
0180
0180
0180
0180
0198
01f8
0000
0000
ENDCHAR
STARTCHAR pa
ENCODING 4947
SWIDTH 96 0
DWIDTH 16 0
BBX 16 16 0 -2
BITMAP
0000
0000
0c30
0ff0
1ff8
1998
0180
0180
0180
0180
0300
0600
0c00
0800
0000
0000
ENDCHAR
STARTCHAR pE
ENCODING 4948
SWIDTH 96 0
DWIDTH 16 0
BBX 16 16 0 -2
BITMAP
0000
0000
0c30
0ff0
1ff8
1998
0180
0180
0180
0180
0180
01f0
0198
01f0
0000
0000
ENDCHAR
STARTCHAR p
ENCODING 4949
SWIDTH 96 0
DWIDTH 16 0
BBX 16 16 0 -2
BITMAP
0000
0000
0c30
0ff0
1ff8
1998
0180
01e0
0060
0060
0060
0060
0060
0060
0000
0000
ENDCHAR
STARTCHAR po
ENCODING 4950
SWIDTH 96 0
DWIDTH 16 0
BBX 16 16 0 -2
BITMAP
0000
0000
0c30
0ff0
1ff8
1998
0180
0180
0300
0300
0600
0600
0600
0600
0000
0000
ENDCHAR
STARTCHAR pWa
ENCODING 4951
SWIDTH 96 0
DWIDTH 16 0
BBX 16 16 0 -2
BITMAP
0000
0000
0c30
0ff0
1ff8
1998
0180
0180
0180
0180
0180
0180
0180
0180
0ff0
1c38
ENDCHAR
STARTCHAR mYa
ENCODING 4952
SWIDTH 96 0
DWIDTH 16 0
BBX 16 16 0 -2
BITMAP
1c1c
07f0
01c0
0ffc
1ffc
3144
2144
2284
3efc
1c7c
0008
0008
0010
0010
0010
0000
ENDCHAR
STARTCHAR rYa
ENCODING 4953
SWIDTH 96 0
DWIDTH 16 0
BBX 16 16 0 -2
BITMAP
0000
1818
0ff0
0180
0180
0180
0300
0700
0e00
1c00
1860
1870
1c30
0fe0
07c0
0000
ENDCHAR
STARTCHAR fYa
ENCODING 4954
SWIDTH 96 0
DWIDTH 16 0
BBX 16 16 0 -2
BITMAP
0000
1818
0ff0
0180
0080
0180
0300
0600
0c00
1e30
3310
3130
1fe0
0f80
0000
0000
ENDCHAR
STARTCHAR Space
ENCODING 4960
SWIDTH 96 0
DWIDTH 16 0
BBX 16 16 0 -2
BITMAP
0000
0000
0000
0000
0000
0000
0000
0000
0000
0000
0000
0000
0000
0000
0000
0000
ENDCHAR
STARTCHAR Ethiopic-Wordspace
ENCODING 4961
SWIDTH 96 0
DWIDTH 16 0
BBX 16 16 0 -2
BITMAP
0000
0000
0000
0000
0000
0300
0300
0000
0000
0300
0300
0000
0000
0000
0000
0000
ENDCHAR
STARTCHAR Ethiopic-Full-Stop
ENCODING 4962
SWIDTH 96 0
DWIDTH 16 0
BBX 16 16 0 -2
BITMAP
0000
0000
0000
0000
0000
0660
0660
0000
0000
0660
0660
0000
0000
0000
0000
0000
ENDCHAR
STARTCHAR Ethiopic-Comma
ENCODING 4963
SWIDTH 96 0
DWIDTH 16 0
BBX 16 16 0 -2
BITMAP
0000
0000
0000
0000
07e0
0000
0180
0180
0000
0180
0180
0000
0000
0000
0000
0000
ENDCHAR
STARTCHAR Ethiopic-Semicolon
ENCODING 4964
SWIDTH 96 0
DWIDTH 16 0
BBX 16 16 0 -2
BITMAP
0000
0000
0000
0000
07e0
0000
0180
0180
0000
0180
0180
0000
07e0
0000
0000
0000
ENDCHAR
STARTCHAR Ethiopic-Colon
ENCODING 4965
SWIDTH 96 0
DWIDTH 16 0
BBX 16 16 0 -2
BITMAP
0000
0000
0000
0000
0600
0600
0000
1f80
0000
0600
0600
0000
0000
0000
0000
0000
ENDCHAR
STARTCHAR Ethiopic-Preface-Colon
ENCODING 4966
SWIDTH 96 0
DWIDTH 16 0
BBX 16 16 0 -2
BITMAP
0000
0000
0000
0000
0600
0600
0000
03c0
0000
0600
0600
0000
0000
0000
0000
0000
ENDCHAR
STARTCHAR Ethiopic-Question-Mark
ENCODING 4967
SWIDTH 96 0
DWIDTH 16 0
BBX 16 16 0 -2
BITMAP
0000
0000
0000
0180
0180
0000
0000
0180
0180
0000
0000
0180
0180
0000
0000
0000
ENDCHAR
STARTCHAR Ethiopic-End-Paragraph
ENCODING 4968
SWIDTH 96 0
DWIDTH 16 0
BBX 16 16 0 -2
BITMAP
0000
0000
0000
0180
0180
0c30
0c30
0180
0180
0c30
0c30
0180
0180
0000
0000
0000
ENDCHAR
STARTCHAR Ethiopic-1
ENCODING 4969
SWIDTH 96 0
DWIDTH 16 0
BBX 16 16 0 -2
BITMAP
0000
0000
1830
0fe0
0000
0180
0180
0300
07c0
0c60
0c60
07c0
0000
0fe0
1830
0000
ENDCHAR
STARTCHAR Ethiopic-2
ENCODING 4970
SWIDTH 96 0
DWIDTH 16 0
BBX 16 16 0 -2
BITMAP
0000
0000
0c18
07f0
0000
01c0
0360
0660
07c0
0600
07c0
0360
01c0
07f0
0c18
0000
ENDCHAR
STARTCHAR Ethiopic-3
ENCODING 4971
SWIDTH 96 0
DWIDTH 16 0
BBX 16 16 0 -2
BITMAP
0000
0000
0000
0c30
07e0
0000
07e0
0660
0600
0600
0600
0600
0000
07e0
0c30
0000
ENDCHAR
STARTCHAR Ethiopic-4
ENCODING 4972
SWIDTH 96 0
DWIDTH 16 0
BBX 16 16 0 -2
BITMAP
0000
0000
0000
0c30
07e0
0000
03c0
0660
0660
0660
0660
03c0
0000
07e0
0c30
0000
ENDCHAR
STARTCHAR Ethiopic-5
ENCODING 4973
SWIDTH 96 0
DWIDTH 16 0
BBX 16 16 0 -2
BITMAP
0000
0000
1830
0fe0
0000
0300
0300
07e0
0e60
0c00
0c60
07e0
0000
0fe0
1830
0000
ENDCHAR
STARTCHAR Ethiopic-6
ENCODING 4974
SWIDTH 96 0
DWIDTH 16 0
BBX 16 16 0 -2
BITMAP
0000
1830
0fe0
0000
0780
0fc0
0cc0
00c0
0180
01c0
0360
03c0
0000
0fe0
1830
0000
ENDCHAR
STARTCHAR Ethiopic-7
ENCODING 4975
SWIDTH 96 0
DWIDTH 16 0
BBX 16 16 0 -2
BITMAP
0000
1830
0fe0
0000
0780
0fc0
0cc0
00c0
0180
0100
0320
03e0
0000
0fe0
1830
0000
ENDCHAR
STARTCHAR Ethiopic-8
ENCODING 4976
SWIDTH 96 0
DWIDTH 16 0
BBX 16 16 0 -2
BITMAP
0000
0000
1818
0ff0
0000
0ff0
0db0
0180
0180
0180
0ff0
0c30
0000
0ff0
1818
0000
ENDCHAR
STARTCHAR Ethiopic-9
ENCODING 4977
SWIDTH 96 0
DWIDTH 16 0
BBX 16 16 0 -2
BITMAP
0000
0000
0c30
07e0
0000
0000
0660
0660
07e0
0660
0640
0380
0000
07e0
0c30
0000
ENDCHAR
STARTCHAR Ethiopic-10
ENCODING 4978
SWIDTH 96 0
DWIDTH 16 0
BBX 16 16 0 -2
BITMAP
0000
0000
0000
0c30
07e0
0000
0180
0180
0180
0180
0180
0180
0000
07e0
0c30
0000
ENDCHAR
STARTCHAR Ethiopic-20
ENCODING 4979
SWIDTH 96 0
DWIDTH 16 0
BBX 16 16 0 -2
BITMAP
0000
0000
0000
1818
0ff0
0000
07e0
05a0
0180
03c0
0660
0660
0000
0ff0
1818
0000
ENDCHAR
STARTCHAR Ethiopic-30
ENCODING 4980
SWIDTH 96 0
DWIDTH 16 0
BBX 16 16 0 -2
BITMAP
0000
0000
0000
1818
0ff0
0000
05e0
0db0
0db0
0db0
0db0
0730
0000
0ff0
1818
0000
ENDCHAR
STARTCHAR Ethiopic-40
ENCODING 4981
SWIDTH 96 0
DWIDTH 16 0
BBX 16 16 0 -2
BITMAP
0000
0000
1818
0ff0
0000
0db0
0db0
0db0
07f0
0030
0030
0030
0000
0ff0
1818
0000
ENDCHAR
STARTCHAR Ethiopic-50
ENCODING 4982
SWIDTH 96 0
DWIDTH 16 0
BBX 16 16 0 -2
BITMAP
0000
0000
0c30
07e0
0000
03e0
0660
03e0
0060
00c0
00c0
00c0
0000
07e0
0c30
0000
ENDCHAR
STARTCHAR Ethiopic-60
ENCODING 4983
SWIDTH 96 0
DWIDTH 16 0
BBX 16 16 0 -2
BITMAP
0000
0000
1818
0ff0
0000
0ff0
0db0
0180
01c0
00c0
0ff0
0c30
0000
0ff0
1818
0000
ENDCHAR
STARTCHAR Ethiopic-70
ENCODING 4984
SWIDTH 96 0
DWIDTH 16 0
BBX 16 16 0 -2
BITMAP
0000
0000
0000
0c30
07e0
0000
03e0
06b0
06e0
0600
0660
03e0
0000
07e0
0c30
0000
ENDCHAR
STARTCHAR Ethiopic-80
ENCODING 4985
SWIDTH 96 0
DWIDTH 16 0
BBX 16 16 0 -2
BITMAP
0000
0000
0000
3018
1ff0
0000
1ff0
16d0
06c0
06c0
06c0
06c0
0000
1ff0
3018
0000
ENDCHAR
STARTCHAR Ethiopic-90
ENCODING 4986
SWIDTH 96 0
DWIDTH 16 0
BBX 16 16 0 -2
BITMAP
0000
1830
0fe0
0000
07c0
06c0
0180
01c0
00c0
0180
0180
0180
0000
0fe0
1830
0000
ENDCHAR
STARTCHAR Ethiopic-100
ENCODING 4987
SWIDTH 96 0
DWIDTH 16 0
BBX 16 16 0 -2
BITMAP
0000
0000
0c30
07e0
0000
03c0
0660
07c0
0600
0300
0300
0300
0000
07e0
0c30
0000
ENDCHAR
STARTCHAR Ethiopic-10000
ENCODING 4988
SWIDTH 96 0
DWIDTH 16 0
BBX 16 16 0 -2
BITMAP
0000
0000
300c
1ff8
0000
1e78
33cc
3ef8
30c0
1860
1860
1860
0000
1ff8
300c
0000
ENDCHAR
STARTCHAR `qe/q2e
ENCODING 4992
SWIDTH 96 0
DWIDTH 16 0
BBX 16 16 0 -2
BITMAP
0e70
0660
03c0
0180
0180
03f0
0d98
1998
19b0
0fc0
0180
0180
0180
0180
0000
0000
ENDCHAR
STARTCHAR `qu/q2u
ENCODING 4993
SWIDTH 96 0
DWIDTH 16 0
BBX 16 16 0 -2
BITMAP
1ce0
0cc0
0780
0300
0300
07e0
1b30
3330
3360
1f80
0300
03f0
0330
0300
0000
0000
ENDCHAR
STARTCHAR `qi/q2i
ENCODING 4994
SWIDTH 96 0
DWIDTH 16 0
BBX 16 16 0 -2
BITMAP
1ce0
0cc0
0780
0300
0300
07e0
1b30
3330
3360
1f80
0300
0300
0330
03f0
0000
0000
ENDCHAR
STARTCHAR `qa/q2a
ENCODING 4995
SWIDTH 96 0
DWIDTH 16 0
BBX 16 16 0 -2
BITMAP
0e70
0660
03c0
0180
0180
03f0
0d98
1998
19b0
0fc0
0180
0300
0600
0c00
0000
0000
ENDCHAR
STARTCHAR `qE/q2E
ENCODING 4996
SWIDTH 96 0
DWIDTH 16 0
BBX 16 16 0 -2
BITMAP
1ce0
0cc0
0780
0300
0300
07e0
1b30
3330
3360
1f80
0300
03e0
0330
03e0
0000
0000
ENDCHAR
STARTCHAR `q/q2
ENCODING 4997
SWIDTH 96 0
DWIDTH 16 0
BBX 16 16 0 -2
BITMAP
39c0
1980
0f00
0600
0780
0180
03f0
0d98
1998
19b0
0fc0
0180
0180
0180
0000
0000
ENDCHAR
STARTCHAR `qo/q2o
ENCODING 4998
SWIDTH 96 0
DWIDTH 16 0
BBX 16 16 0 -2
BITMAP
0e70
0660
03c0
0240
02c0
0300
07e0
1b30
3330
3360
1f80
0300
0300
0300
0000
0000
ENDCHAR
STARTCHAR mWe
ENCODING 5000
SWIDTH 96 0
DWIDTH 16 0
BBX 16 16 0 -2
BITMAP
0000
0000
0000
0000
0000
3ff0
7ff0
4490
c59f
8d15
9937
f1e0
f1c0
0000
0000
0000
ENDCHAR
STARTCHAR bWe
ENCODING 5001
SWIDTH 96 0
DWIDTH 16 0
BBX 16 16 0 -2
BITMAP
0000
0000
0000
0e00
1f00
3180
3180
3180
31fc
3196
319c
3180
3180
3180
0000
0000
ENDCHAR
STARTCHAR GWe
ENCODING 5002
SWIDTH 96 0
DWIDTH 16 0
BBX 16 16 0 -2
BITMAP
30c0
1f80
0000
1f00
3180
3180
0180
0180
01f8
03ac
0338
0300
0300
0300
0000
0000
ENDCHAR
STARTCHAR fWe
ENCODING 5003
SWIDTH 96 0
DWIDTH 16 0
BBX 16 16 0 -2
BITMAP
0000
0000
0000
00c0
0040
00c0
01fc
0316
061c
0f00
1980
1888
0ff8
03e8
0000
0000
ENDCHAR
STARTCHAR pWe
ENCODING 5004
SWIDTH 96 0
DWIDTH 16 0
BBX 16 16 0 -2
BITMAP
0000
0000
0c30
0ff0
1ff8
1998
0180
0180
01fc
0196
019c
0180
0180
0180
0000
0000
ENDCHAR
STARTCHAR `ke/k2e
ENCODING 5008
SWIDTH 96 0
DWIDTH 16 0
BBX 16 16 0 -2
BITMAP
0000
0088
018c
18d8
19f0
1fe0
1e30
0630
0630
0630
0630
0630
0630
0630
0000
0000
ENDCHAR
STARTCHAR `ku/k2u
ENCODING 5009
SWIDTH 96 0
DWIDTH 16 0
BBX 16 16 0 -2
BITMAP
0000
0220
0630
6360
67c0
7f80
78c0
18c0
18c0
18fc
18cc
18c0
18c0
18c0
0000
0000
ENDCHAR
STARTCHAR `ki/k2i
ENCODING 5010
SWIDTH 96 0
DWIDTH 16 0
BBX 16 16 0 -2
BITMAP
0000
0220
0630
6360
67c0
7f80
78c0
18c0
18c0
18c0
18c0
18c0
18cc
18fc
0000
0000
ENDCHAR
STARTCHAR `ka/k2a
ENCODING 5011
SWIDTH 96 0
DWIDTH 16 0
BBX 16 16 0 -2
BITMAP
0000
0088
018c
18d8
19f0
1fe0
1e30
0630
0630
0630
0630
0030
0030
0030
0000
0000
ENDCHAR
STARTCHAR `kE/k2E
ENCODING 5012
SWIDTH 96 0
DWIDTH 16 0
BBX 16 16 0 -2
BITMAP
0000
0220
0630
6360
67c0
7f80
78c0
18c0
18c0
18c0
18c0
18f8
18cc
18f8
0000
0000
ENDCHAR
STARTCHAR `k/k2
ENCODING 5013
SWIDTH 96 0
DWIDTH 16 0
BBX 16 16 0 -2
BITMAP
0000
0088
018c
18d8
19f0
1be0
1e30
0c30
0e30
0630
0630
0630
0630
0630
0000
0000
ENDCHAR
STARTCHAR `ko/k2o
ENCODING 5014
SWIDTH 96 0
DWIDTH 16 0
BBX 16 16 0 -2
BITMAP
0000
0088
018c
18d8
19f0
1fe0
1e30
0630
0630
0630
0630
0600
0600
0600
0000
0000
ENDCHAR
STARTCHAR mWi
ENCODING 5016
SWIDTH 96 0
DWIDTH 16 0
BBX 16 16 0 -2
BITMAP
0000
0000
7fc0
7fec
ca2c
8a3c
8a27
8be3
f9c0
7800
0800
1800
3000
6000
0000
0000
ENDCHAR
STARTCHAR bWi
ENCODING 5017
SWIDTH 96 0
DWIDTH 16 0
BBX 16 16 0 -2
BITMAP
0000
0000
0000
0e00
1f00
3198
3198
31f8
318e
3186
3180
3180
3180
3180
0000
0000
ENDCHAR
STARTCHAR GWi
ENCODING 5018
SWIDTH 96 0
DWIDTH 16 0
BBX 16 16 0 -2
BITMAP
30c0
1f80
0000
1f00
3180
3180
0180
01b0
01b0
03f0
031c
030c
0300
0300
0000
0000
ENDCHAR
STARTCHAR fWi
ENCODING 5019
SWIDTH 96 0
DWIDTH 16 0
BBX 16 16 0 -2
BITMAP
0000
0000
0000
00c0
0058
00d8
01f8
030e
0606
0f00
1980
1888
0ff8
03e8
0000
0000
ENDCHAR
STARTCHAR pWi
ENCODING 5020
SWIDTH 96 0
DWIDTH 16 0
BBX 16 16 0 -2
BITMAP
0000
0000
0c30
0ff0
1ff8
1998
0180
0198
0198
01f8
018c
018c
0180
0180
0000
0000
ENDCHAR
STARTCHAR Xe
ENCODING 5024
SWIDTH 96 0
DWIDTH 16 0
BBX 16 16 0 -2
BITMAP
39c0
1980
0f00
76e0
3fc0
0600
06f0
03f8
0318
0318
0318
0318
0318
0318
0000
0000
ENDCHAR
STARTCHAR Xu
ENCODING 5025
SWIDTH 96 0
DWIDTH 16 0
BBX 16 16 0 -2
BITMAP
7380
3300
1e00
edc0
7f80
0c00
0de0
07f0
063f
0633
0630
0630
0630
0630
0000
0000
ENDCHAR
STARTCHAR Xi
ENCODING 5026
SWIDTH 96 0
DWIDTH 16 0
BBX 16 16 0 -2
BITMAP
7380
3300
1e00
edc0
7f80
0c00
0de0
07f0
0630
0630
0630
0630
0633
063f
0000
0000
ENDCHAR
STARTCHAR Xa
ENCODING 5027
SWIDTH 96 0
DWIDTH 16 0
BBX 16 16 0 -2
BITMAP
39c0
1980
0f00
76e0
3fc0
0600
06f0
03f8
0318
0318
0318
0318
0018
0018
0000
0000
ENDCHAR
STARTCHAR  XE
ENCODING 5028
SWIDTH 96 0
DWIDTH 16 0
BBX 16 16 0 -2
BITMAP
7380
3300
1e00
edc0
7f80
0c00
0de0
07f0
0630
0630
0630
063e
0633
063e
0000
0000
ENDCHAR
STARTCHAR X
ENCODING 5029
SWIDTH 96 0
DWIDTH 16 0
BBX 16 16 0 -2
BITMAP
7380
3300
1e00
edc0
7f80
0c00
0ff0
03f8
0318
0318
0398
0198
0198
0198
0000
0000
ENDCHAR
STARTCHAR Xo
ENCODING 5030
SWIDTH 96 0
DWIDTH 16 0
BBX 16 16 0 -2
BITMAP
39c0
1980
0f00
76e0
3fc0
0630
06f8
03d8
0318
0318
0318
0318
0300
0300
0000
0000
ENDCHAR
STARTCHAR mWE
ENCODING 5032
SWIDTH 96 0
DWIDTH 16 0
BBX 16 16 0 -2
BITMAP
0000
0000
1ff8
3ff8
6288
4288
4508
7df8
38f8
0010
0010
003c
0026
00fc
0180
0100
ENDCHAR
STARTCHAR bWE
ENCODING 5033
SWIDTH 96 0
DWIDTH 16 0
BBX 16 16 0 -2
BITMAP
0000
0000
0000
0700
0f80
18c0
18c0
18c0
18c0
18c0
18c0
18c0
18f8
18cc
03f8
0600
ENDCHAR
STARTCHAR GWE
ENCODING 5034
SWIDTH 96 0
DWIDTH 16 0
BBX 16 16 0 -2
BITMAP
1860
0fc0
0000
0f80
18c0
18c0
00c0
00c0
00c0
0180
0180
0180
01f0
0198
07f0
0c00
ENDCHAR
STARTCHAR fWE
ENCODING 5035
SWIDTH 96 0
DWIDTH 16 0
BBX 16 16 0 -4
BITMAP
0000
0180
0180
0300
0600
0c00
1f00
1910
19f0
1fd0
0300
0300
03c0
0660
1fc0
3000
ENDCHAR
STARTCHAR pWE
ENCODING 5036
SWIDTH 96 0
DWIDTH 16 0
BBX 16 16 0 -2
BITMAP
0000
0000
0c30
0ff0
1ff8
1998
0180
0180
0180
0180
0180
01f0
0198
07f0
0c00
0000
ENDCHAR
STARTCHAR `ge/g2e
ENCODING 5040
SWIDTH 96 0
DWIDTH 16 0
BBX 16 16 0 -2
BITMAP
0cc0
0780
0300
0f80
18c0
18c0
00c0
00c0
00c0
0180
0180
0180
0180
0180
0000
0000
ENDCHAR
STARTCHAR `gu/g2u
ENCODING 5041
SWIDTH 96 0
DWIDTH 16 0
BBX 16 16 0 -2
BITMAP
1980
0f00
0600
1f00
3180
3180
0180
0180
0180
03f8
0318
0300
0300
0300
0000
0000
ENDCHAR
STARTCHAR `gi/g2i
ENCODING 5042
SWIDTH 96 0
DWIDTH 16 0
BBX 16 16 0 -2
BITMAP
0cc0
0780
0300
0f80
18c0
18c0
00c0
00c0
00c0
0180
0180
0180
0198
01f8
0000
0000
ENDCHAR
STARTCHAR `ga/g2a
ENCODING 5043
SWIDTH 96 0
DWIDTH 16 0
BBX 16 16 0 -2
BITMAP
0660
03c0
0180
07c0
0fe0
0c60
0060
0060
0060
00c0
01c0
0780
0e00
0c00
0000
0000
ENDCHAR
STARTCHAR `gE/g2E
ENCODING 5044
SWIDTH 96 0
DWIDTH 16 0
BBX 16 16 0 -2
BITMAP
0cc0
0780
0300
0f80
18c0
18c0
00c0
00c0
00c0
0180
0180
01f0
0198
01f0
0000
0000
ENDCHAR
STARTCHAR `g/g2
ENCODING 5045
SWIDTH 96 0
DWIDTH 16 0
BBX 16 16 0 -2
BITMAP
0330
01e0
00c0
0fe0
19b0
0f30
0030
0030
0060
0060
0060
0060
0060
0060
0000
0000
ENDCHAR
STARTCHAR `go/g2o
ENCODING 5046
SWIDTH 96 0
DWIDTH 16 0
BBX 16 16 0 -2
BITMAP
0000
06c0
0380
0100
0100
07c0
0c60
0c60
0060
0040
00c0
00c0
00c0
00c0
0000
0000
ENDCHAR
STARTCHAR mWu/mW
ENCODING 5048
SWIDTH 96 0
DWIDTH 16 0
BBX 16 16 0 -2
BITMAP
0000
0000
7fc0
7fe4
ca24
8a3f
8a21
8be0
f9c0
7800
0800
1800
3000
6000
0000
0000
ENDCHAR
STARTCHAR bWu/bW
ENCODING 5049
SWIDTH 96 0
DWIDTH 16 0
BBX 16 16 0 -2
BITMAP
0000
0000
0000
0e00
1f00
31b0
31b0
31fc
318c
3180
3180
3180
3180
3180
0000
0000
ENDCHAR
STARTCHAR GWu/GW
ENCODING 5050
SWIDTH 96 0
DWIDTH 16 0
BBX 16 16 0 -2
BITMAP
30c0
1f80
0000
1f00
31b0
31b0
01fc
018c
0180
0380
0300
0300
0300
0300
0000
0000
ENDCHAR
STARTCHAR fWu/fW
ENCODING 5051
SWIDTH 96 0
DWIDTH 16 0
BBX 16 16 0 -2
BITMAP
0000
0000
0000
00c0
0058
00d8
01fe
0306
0600
0f00
1980
1888
0ff8
03e8
0000
0000
ENDCHAR
STARTCHAR pWu/pW
ENCODING 5052
SWIDTH 96 0
DWIDTH 16 0
BBX 16 16 0 -2
BITMAP
0000
0000
0c30
0ff0
1ff8
1998
0180
01b0
01b0
01fc
018c
0180
0180
0180
0000
0000
ENDCHAR
STARTCHAR Ornament
ENCODING 65008
SWIDTH 96 0
DWIDTH 16 0
BBX 16 16 0 -2
BITMAP
0000
0000
318c
1998
0c30
0660
03c0
318c
33cc
0660
0c30
1818
318c
2184
0000
0000
ENDCHAR
STARTCHAR Eritrea/Ethiopia
ENCODING 65009
SWIDTH 96 0
DWIDTH 16 0
BBX 16 16 0 -2
BITMAP
0000
0000
0300
0700
0580
0cc0
1860
1860
3040
307c
181c
0c30
07e0
03c0
0000
0000
ENDCHAR
STARTCHAR Inverted-Eritrea/Ethiopia
ENCODING 65010
SWIDTH 96 0
DWIDTH 16 0
BBX 16 16 0 -2
BITMAP
0000
0000
0300
0300
0780
0fc0
0fe0
1fe0
3fc0
3ffc
1ffc
0ff0
07e0
03c0
0000
0000
ENDCHAR
STARTCHAR Africa
ENCODING 65011
SWIDTH 96 0
DWIDTH 16 0
BBX 16 16 0 -2
BITMAP
0000
0000
0f80
1fc0
3860
3074
303c
1e18
0330
0320
0360
0160
01c0
01c0
0000
0000
ENDCHAR
STARTCHAR Inverted-Africa
ENCODING 65012
SWIDTH 96 0
DWIDTH 16 0
BBX 16 16 0 -2
BITMAP
0000
0000
0fc0
1fc0
3fe0
3ff4
3ffc
07f8
03f0
03e0
03e0
03e0
01c0
0180
0000
0000
ENDCHAR
STARTCHAR wWe
ENCODING 65013
SWIDTH 96 0
DWIDTH 16 0
BBX 16 16 0 -2
BITMAP
0000
0000
0ff0
1db8
3198
3198
3318
3bb0
1fe0
0300
03f0
0758
0670
0600
0000
0000
ENDCHAR
STARTCHAR wWi
ENCODING 65014
SWIDTH 96 0
DWIDTH 16 0
BBX 16 16 0 -2
BITMAP
0000
0000
0ff0
1db8
3198
3198
3338
3be0
1fd8
0318
03f8
070c
060c
0600
0000
0000
ENDCHAR
STARTCHAR wWa
ENCODING 65015
SWIDTH 96 0
DWIDTH 16 0
BBX 16 16 0 -2
BITMAP
0000
0000
0000
0ff0
1db8
3198
3198
3318
3bb0
1fe0
0300
0300
0700
0600
1f80
30c0
ENDCHAR
STARTCHAR wWE
ENCODING 65016
SWIDTH 96 0
DWIDTH 16 0
BBX 16 16 0 -2
BITMAP
0000
0000
0000
0ff0
1db8
3198
3198
3318
3bb0
1fe0
0300
0300
07c0
0660
1fc0
3000
ENDCHAR
STARTCHAR wWu/wW
ENCODING 65017
SWIDTH 96 0
DWIDTH 16 0
BBX 16 16 0 -2
BITMAP
0000
0000
3fc0
76e0
c660
c66c
cc6c
eeff
7f83
0c00
0c00
1c00
1800
1800
0000
0000
ENDCHAR
STARTCHAR Ethiopic-Gemination
ENCODING 65018
SWIDTH 96 0
DWIDTH 16 0
BBX 16 3 0 14
BITMAP
0c30
0c30
0000
ENDCHAR
STARTCHAR Ethiopic-Sarcasm-Mark
ENCODING 65019
SWIDTH 96 0
DWIDTH 8 0
BBX 16 16 0 -2
BITMAP
0000
0000
0180
0180
0000
0180
0180
0180
0180
0180
0180
0180
0180
0180
0000
0000
ENDCHAR
STARTCHAR Ethiopic-Point
ENCODING 65020
SWIDTH 96 0
DWIDTH 16 0
BBX 16 16 0 -2
BITMAP
0000
0000
0000
0000
0000
0000
0000
0000
0000
0000
0000
0180
03c0
0180
0000
0000
ENDCHAR
STARTCHAR Ethiopic-Left-Quote
ENCODING 65021
SWIDTH 96 0
DWIDTH 16 0
BBX 16 16 0 -2
BITMAP
0000
0000
0000
0000
0000
0000
0360
06c0
0d80
06c0
0360
0000
0000
0000
0000
0000
ENDCHAR
STARTCHAR Ethiopic-Right-Quote
ENCODING 65022
SWIDTH 96 0
DWIDTH 16 0
BBX 16 16 0 -2
BITMAP
0000
0000
0000
0000
0000
0000
0d80
06c0
0360
06c0
0d80
0000
0000
0000
0000
0000
ENDCHAR
STARTCHAR Ethiopic-Sylized-Question-Mark
ENCODING 65023
SWIDTH 96 0
DWIDTH 16 0
BBX 16 16 0 -2
BITMAP
0000
0000
03c0
0060
0030
0030
0030
00f0
00e0
0080
0080
0000
0180
0180
0000
0000
ENDCHAR
ENDFONT
